<?xml version="1.0" encoding="utf-8"?>
<!-- Generator: Adobe Illustrator 23.0.1, SVG Export Plug-In . SVG Version: 6.00 Build 0)  -->
<svg version="1.1" id="Capa_1" xmlns="http://www.w3.org/2000/svg" xmlns:xlink="http://www.w3.org/1999/xlink" x="0px" y="0px"
	 viewBox="0 0 222.4 132" style="enable-background:new 0 0 222.4 132;" xml:space="preserve">
<style type="text/css">
	.st0{fill-rule:evenodd;clip-rule:evenodd;fill:#FFFFFF;}
</style>
<g>
	<path class="st0" d="M143.1,72.7c-0.1-1.8-0.1-4-0.1-5.8c1.2,0,2.3,0.1,3.5,0c0.2-0.5,0.1-1.5-0.1-2.1c-0.7-0.6-2.3,0.1-3.4-0.2
		c0-1.4,0-3.3,0-4.3c1.4-0.1,3.3,0,4.6-0.1c0.4-0.6,0.2-1.5-0.1-2.3c-1.6-0.1-4.1-0.1-5.9-0.1c-0.5,0-1.1-0.1-1.4,0.3
		c0.1,0.8,0,1.5,0.2,2.2c-0.2,1.1-0.1,2.6-0.1,4.1c0,3.5-0.1,7.5,0,10.5c1.2,0.1,2.4,0,3.7,0c1.4-0.1,2.9,0.3,4.1-0.1
		c0.2-0.7,0.1-1.6-0.1-2.5C146.7,72.5,144.3,72.6,143.1,72.7z"/>
	<path class="st0" d="M140.2,41.9c0,4-0.1,8.3,0.1,11.6c1.1,0,3.5,0.1,5.2,0.1c0.7,0,2.1,0.1,2.5-0.1c0.7-0.5,0.1-1.8,0.1-2.6
		c-1.3,0.2-3.7,0.2-5,0.3c0-1.8,0.1-4.1-0.1-5.7c1.1-0.1,2.4,0.1,3.6-0.1c0-0.8,0.2-1.9-0.2-2.2c-0.6-0.5-2.5,0.3-3.3-0.1
		c0.1-1.5-0.1-2.9,0.1-4.3c1.3,0,3.5-0.1,4.5,0c0.5-0.7,0.2-1.5,0-2.3c-1.4-0.3-3.5,0-5.2,0c-0.8,0-1.5-0.3-2.1,0.1
		c0,0.6,0,1.7,0.2,2.3C140.1,39.5,140.2,40.7,140.2,41.9z"/>
	<path class="st0" d="M133.9,80.3c-0.9,4-1.7,8.2-2.5,12.3c-0.3,1.3-0.6,2.6-0.7,4c0.7,0.1,1.6,0.1,2.3,0.1c0.5-0.7,0.4-2.1,0.8-2.9
		c1.1,0,2.1-0.1,3.2,0.1c0.3,0.9,0.1,2.3,0.7,2.9c0.5,0,1.6,0.1,2.1-0.1c0.3-0.6,0-1.3-0.1-2c-0.8-4.8-1.7-9.8-2.7-14.4
		C136.3,79.9,134.5,79.9,133.9,80.3z M134.5,91.2c0.2-1.9,0.6-3.7,0.8-5.6c0.1,0,0.1,0,0.2,0c0.2,1.8,0.8,4,0.7,5.7
		C135.6,91.2,135.1,91.3,134.5,91.2z"/>
	<path class="st0" d="M153.3,69.4c-0.9,0-1.7-0.1-2.6-0.1c-0.2,0.4-0.2,1-0.2,1.4c0,2.5,0.9,3.9,2.9,4.4c2.1,0.6,4.3-0.3,5.3-1.4
		c0.8-1.3,0.8-3.8,0.3-5.5c-0.4-0.8-1-1.4-1.7-1.8c-0.8-0.5-1.3-1.3-2.2-1.6c-0.3-0.5-0.8-0.8-1.4-1.1c-0.1-1.1-0.5-2.9,0.4-3.4
		c0.7-0.4,1.9-0.1,2.3,0.7c-0.1,0.7-0.1,1.6-0.1,2.3c0.8,0.2,1.9,0.2,2.7,0.1c0.2-0.8-0.1-1.6-0.1-2.6c-0.4-0.9-0.6-1.8-1.3-2.3
		c-0.9-0.6-2.4-0.8-3.5-0.7c-1.8,0.2-2.9,1.2-3.2,2.5c-0.2,0.6-0.3,2.2-0.2,3.2c0.3,2.7,3,3.5,4.6,4.9c0.1,0.1,0.3,0.2,0.4,0.3
		c0.6,0.5,0.7,1.1,0.6,2.1c0,0.9-0.1,1.8-0.5,2.6c-0.8-0.2-1.4-0.4-2.2-0.8c0-0.3-0.4-0.5-0.4-0.8C153.1,71,153.5,70.1,153.3,69.4z"
		/>
	<path class="st0" d="M145.8,79.7c-1.1,0-2.6,0.5-3.4,1.4c-1.2,1.4-0.9,4.4-1,6.8c0,0.9,0.1,2,0.1,2.9c0,2,0,4.1,1,5
		c0.7,0.6,2.6,1.2,3.9,0.8c0.4-0.1,0.7-0.7,1.3-0.6c0.4,0.1,0.2,0.3,0.5,0.4c0.6,0,1.4,0.1,1.9-0.1c0.2-2.6,0.3-6,0.1-8.8
		c-1.3-0.1-3,0-4.3,0.1c0.1,0.8,0,1.5,0.1,2.2c0.5,0,1.2-0.1,1.6,0.1c-0.1,1.8,0.5,3.6-0.5,4.6c-0.7,0.1-1.8,0.3-2.3-0.3
		c-0.4-0.5-0.3-1.8-0.3-2.8c0-2.2,0-4.2,0-6.2c0-1.1-0.2-2.2,0.3-2.9c0.6-0.3,1.6-0.4,2.1-0.1c0.8,0.6,0.4,2.2,0.5,3.3
		c0.8,0.1,1.9,0,2.6,0c0.6-2.4-0.3-4.5-2-5.3C147.4,79.9,146.4,79.7,145.8,79.7z"/>
	<path class="st0" d="M163.8,60.9c-0.1,1.8-0.2,4-0.2,6.7c0,2.2-0.2,4.4,0,5.8c0,0.3,0.3,0.5,0.2,0.7c0,0.4-0.5,0.6-0.2,1
		c0.4,0.5,2.5,0.3,2.9,0.1c-0.1-3.5,0-6.9,0-10.5c0-1.3-0.2-2.6,0.1-3.8c1,0,2.1,0.1,3-0.1c0.3-0.5,0.2-1.4,0.2-2.2
		c-2.7-0.3-6.6-0.1-9.2-0.1c-0.3,0.5-0.2,1.8,0.1,2.3C161.5,60.8,163,60.5,163.8,60.9z"/>
	<path class="st0" d="M129.5,50.1c0,0.2,0.2,0.5,0.2,0.7c0.3,1.3,0.9,1.9,2,2.5c1.9,1,4.5,0.4,5.9-0.9c0.8-1.3,0.5-3.3,0.5-5.3
		c0-3.4,0.1-7.3-0.1-10.7c-0.7-0.2-2,0-2.8,0c-0.1,3.4,0.1,7.8,0.1,11.3c0,1.1,0.1,2.8-0.4,3.3c-0.6,0.5-1.8,0.3-2.4-0.1
		c-0.4-1.1-0.2-2.3-0.2-3.5c0-3.8,0-7.6-0.1-11c-0.7-0.2-2-0.1-2.8,0c0,2.9,0.1,6.8,0.1,10.1C129.5,47.8,129.3,49.1,129.5,50.1z"/>
	<path class="st0" d="M95.9,60.1c-0.9-1.9-3.4-2.2-5.7-2.2c-0.8,0-2.1,0-2.6,0.3c-0.1,6.4-0.1,11.4,0,16.7c1.8,0.2,3.6,0.3,5.2,0.2
		c4-0.4,3.5-4.1,3.5-8.3C96.3,64.3,96.7,61.6,95.9,60.1z M92.8,72.2c-0.7,0.2-1.4,0.3-2.1,0.2c-0.2-3,0-6.1,0-9.5
		c0-0.7-0.1-1.5,0.2-2.1c0.8-0.2,1.4,0.1,2,0.2c0.6,1.7,0.3,5,0.3,7.3C93.2,69.8,93.5,71.2,92.8,72.2z"/>
	<path class="st0" d="M165.6,94.5c-0.1-1.8,0.1-3.8-0.1-5.3c0.2-1.4,0.1-3.3,0.1-5.2c0-1.5,0.1-3-0.1-4.2c-0.8,0.1-2.2-0.3-2.7,0.2
		c0.2,5.3,0.1,10.9,0.1,16.5c2.6,0,5.5,0,8,0c0.2-0.7,0-1.5-0.1-2.2C169.2,94.3,167.4,94.4,165.6,94.5z"/>
	<path class="st0" d="M87.7,53.2c0.8,0.1,1.8,0.1,2.5,0.2c0.4-2.1,0-5.4,0.2-8c0.7-0.1,1.6,0,2.1,0.1c1-0.5,1.5-1.6,2.7-2
		c0.8-1.3,1.2-4.5,0.3-5.9c-0.8-1.3-2.4-1.4-4.4-1.4c-0.6,0.2-1.3,0.5-2.1,0.4c-0.5-0.1-1-0.7-1.2-0.2c-0.2,0.2-0.1,1.1-0.1,1.9
		c-0.1,3.5,0.1,7-0.1,10.1c-0.1,1.4,0.1,2.6,0,3.7C87.6,52.4,87.4,52.7,87.7,53.2z M90.6,38.9c0.7-0.1,1.6-0.2,2.2,0.1
		c0.2,0.4,0.6,2.9,0.2,3.5c-0.4,0.6-1.5,0.1-2.3,0.4C90.5,41.7,90.5,40.3,90.6,38.9z"/>
	<path class="st0" d="M118.8,50.5c0.2,1.9,1.8,2.9,3.3,3.2c0,1.5,0.3,2.7,1.4,3c1,0,2.2,0.1,3.1-0.1c0.1-0.6,0.1-1.6,0-2.2
		c-0.7-0.1-1.7,0.2-2-0.1c-0.1-0.2,0-0.4-0.1-0.5c0.3-0.3,0.9-0.3,1.4-0.5c1-0.5,1.9-2,1.9-3.8c-0.1-2-0.1-4.2-0.1-6.1
		c0-1.7,0.2-3.4-0.1-4.5c-0.3-1.3-1.6-1.8-2.3-2.6c-1-0.2-1.7-0.6-2.7-0.4c-1.1,0.1-2.6,1-3.2,1.8c-0.2,0.3-0.5,1.2-0.6,1.9
		c-0.2,2.7-0.1,6.2-0.1,9.2C118.8,49.3,118.8,50,118.8,50.5z M122.1,39.2c0.4-0.6,1.8-0.4,2.2,0.1c0.4,2.1,0.1,4.6,0.2,6.9
		c0,1.3,0.2,2.6,0.1,3.8c-0.1,0.8-0.8,1.5-1.9,1.1c-1-0.3-0.7-2-0.7-3.6c0-1.8,0-3.2,0-5.6C121.9,41,121.8,39.6,122.1,39.2z"/>
	<path class="st0" d="M48.2,21.4c-0.4-0.8-2.3-0.6-2,0.7C46.7,23,48.5,22.9,48.2,21.4z"/>
	<path class="st0" d="M119.9,96.4c0.1-2.6,0-5.3,0-7.8c0-0.7-0.2-1.5,0.2-2c0.8,1,0.7,2.5,1,3.8c0.4,2,0.7,4,1.1,6
		c0.6,0.1,1.6,0.1,2,0.1c0.7-3,1.3-6.3,1.8-9.3c0.3-0.1,0.2-0.5,0.5-0.7c0.4,1.5,0.1,3.5,0.1,5.3c0,1.6,0,3.3,0.1,4.7
		c0.7,0,1.5,0,2.3-0.1c0.5-2.8,0.2-6.3,0.2-9.5c0-1.2,0-2.3,0-3.5c0-1.2,0.3-2.5-0.1-3.5c-1.3-0.1-2.8-0.2-4,0.1
		c-0.5,2.3-0.9,4.8-1.3,6.9c-0.1,0.8-0.1,1.7-0.7,2.2c-0.5-1.4-0.7-3.1-1-4.7c-0.3-1.6-0.3-3.3-0.9-4.6c-0.8-0.1-2.4,0-3.4-0.2
		c-0.2,0-0.4,0.2-0.5,0.2c-0.1,2.7-0.2,5.6-0.2,8.4c0,2.6-0.1,5.5,0.2,7.8C118.2,96.6,119.3,96.4,119.9,96.4z"/>
	<path class="st0" d="M111.1,53.2c0.4-2.3-0.2-5.4,0.2-7.5c1.1,0,2.3-0.1,2.7,0.7c0.6,2-0.5,5.5,0.9,6.8c0.8,0,1.8,0.2,2.4-0.1
		c-0.1-0.4-0.4-0.5-0.5-1.1c-0.3-1.6,0.4-5-0.5-6.2c-0.1-0.1-0.5-0.4-0.7-0.6c-0.3-0.2-0.7-0.2-0.6-0.7c0.1-0.3,0.9-0.5,1.1-0.7
		c0.8-0.7,0.9-3.1,0.7-4.6c-0.2-1.1-1-2.1-1.9-2.4c-0.2-0.1-0.4-0.1-0.7-0.1c-0.3-0.1-0.7-0.3-1-0.3c-0.8-0.1-1.4,0.1-1.9,0.2
		c-1,0.1-1.5-0.3-2.6-0.2c-0.1,0-0.1,0.1-0.1,0.2c0,0.1-0.1,0.1-0.1,0.1c0,5.6,0,11.2,0.2,16.7C109.5,53.3,110.4,53.2,111.1,53.2z
		 M111.4,38.8c1.2,0,2.4-0.2,2.7,0.8c0.3,1.2,0.2,3.2-0.6,3.7c-0.7-0.1-1.5,0.3-2.2,0C111.4,42.1,111.1,40.1,111.4,38.8z"/>
	<path class="st0" d="M95.1,80.6c-0.7-0.2-1.3-0.7-2.2-0.8c-1.4-0.2-3.2,0-4.8-0.1c-0.1,0-0.1,0.2-0.2,0.2
		c-0.2,5.7-0.1,11.4-0.1,16.8c2.3,0,5,0.5,6.6-0.3c2-1,2.1-3.8,2-6.8C96.3,86.3,97.1,82.2,95.1,80.6z M93,93.9
		c-0.6,0.2-1.6,0.5-2.3,0.2c0-3.4,0-8.4,0.1-11.5c0.6-0.3,1.5,0,2.1,0.1c0.6,1.4,0.3,3.7,0.4,5.7C93.3,90.4,93.5,92.7,93,93.9z"/>
	<path class="st0" d="M58.6,17c0.3-0.3,0.5-0.6,0.6-1c-0.3-0.5-0.9-1.1-1.4-1c-0.4,0.5-0.3,1.3,0.1,1.7C58.2,16.8,58.3,17.1,58.6,17
		z"/>
	<path class="st0" d="M171.1,72.5c0.1,1,0,2.1,0.2,2.8c0.8,0.1,1.8,0.1,2.5-0.1c0.4-2.3-0.1-5.5,0.1-7.5c1.3,0,2.2-0.1,2.6,0.8
		c0.3,0.7,0.1,2.2,0.1,3.4c0,1.1-0.1,3.1,0.9,3.4c0.7,0.2,2,0,2.6-0.2c0-0.4-0.4-0.5-0.5-0.9c-0.7-1.8,0.4-4.9-0.5-6.5
		c-0.1-0.4-1.2-0.6-1.3-1c-0.1-0.5,0.5-0.4,0.9-0.7c0.9-0.8,0.9-2,0.8-3.6c0-0.9,0.1-1.9-0.2-2.5c0,0-0.2-0.3-0.2-0.4
		c-0.1-0.1-0.4-0.2-0.6-0.4c-0.2-0.2-0.4-0.4-0.5-0.5c-0.2-0.1-0.5,0-0.7-0.1c-0.4-0.2-0.7-0.6-1.3-0.5c-0.2,0.3-0.8,0-1.1,0.1
		c-0.6,0.1-1,0.3-1.4,0.2c-0.7,0-1.4-0.4-2.2-0.2C171.2,62.7,170.9,68.1,171.1,72.5z M174.2,60.9c0.8,0,1.7-0.1,2.2,0.2
		c0.4,0.7,0.6,3.5-0.2,4c-0.5,0.3-1.2,0.1-2.1,0.1C174.2,63.8,174,62.1,174.2,60.9z"/>
	<path class="st0" d="M213.6,73.1c0.3,0.9,1.4,1.9,2.3,2.1c0.2,0.1,0.5,0,0.8,0c0.3,0,0.5,0.2,0.7,0.2c0.9,0.1,1.9-0.2,2.9-0.3
		c0.5-0.3,1.2-0.8,1.6-1.4c0.7-1.3,0.3-2.8,0.4-4.8c0.1-1.3,0.1-3,0.1-4.7c0-2.1,0.1-3.5-0.5-4.6c-0.3-0.4-1.5-1.5-1.9-1.7
		c-1.2-0.6-3-0.6-4.1-0.1c-1.3,0.6-2.5,1.8-2.5,3.9c0,3-0.2,6.4,0,9.5C213.4,71.9,213.4,72.7,213.6,73.1z M216.6,60.9
		c0.4-0.6,1.8-0.6,2.3,0.1c0.4,0.5,0.2,2.2,0.2,3.1c0,1.4,0.1,3.3,0.1,4.8c0,1,0.1,2,0,2.8c-0.1,1.1-1.3,1.3-2.2,0.8
		c-0.1-0.2-0.2-0.4-0.4-0.6C216.6,68.6,216.4,64.7,216.6,60.9z"/>
	<path class="st0" d="M219,87c-0.7-0.5-2.1-1.2-2.4-2c-0.4-0.9-0.1-1.9-0.1-3c0.5-0.3,1.3-0.5,1.9-0.3c1,0.4,0.5,2.2,0.8,3.1
		c0.8,0,1.9,0.2,2.8-0.1c0-2-0.1-3.7-1.3-4.6c-0.8-0.6-2.2-1-3.7-0.9c-2,0.2-3.5,1.6-3.5,3.7c0,1.8,0.3,3.3,1.1,4.2
		c0.6,0.7,1.5,1.1,2.4,1.7c0.9,0.6,2,1.2,2.3,1.9c0.3,0.9,0.2,2.2,0,3.2c-0.4,0.6-1.9,0.7-2.4,0.2c-0.7-0.6-0.3-2-0.4-3.2
		c-0.8-0.1-1.9,0-2.8-0.1c-0.7,3.8,1.4,6.1,4.5,6c0.5,0,0.9-0.2,1.4-0.4c0.3-0.1,0.6-0.1,0.8-0.2c0.2-0.1,0.3-0.4,0.5-0.5
		c0.6-0.5,1-0.8,1.3-1.4c0.2-2.2,0.3-4.1-0.7-5.5C221,88.1,219.9,87.6,219,87z"/>
	<path class="st0" d="M111.5,72.5c0-4.9,0-9.6,0-14.6c-0.9-0.1-2.1-0.2-2.8,0.1c0,0.8,0,1.7,0.2,2.3c-0.4,1.9-0.1,4.3-0.1,6.5
		c0,2.7-0.2,5.4,0,8.1c2.4,0.1,5.2,0.1,7.6,0c0.6-0.5,0.4-2,0.1-2.6C115,72.5,113.1,72.6,111.5,72.5z"/>
	<path class="st0" d="M101.4,94.3c0-1.8,0-4-0.1-5.6c1.2,0,2.5,0,3.5,0c0.2-0.6,0.1-1.8-0.2-2.3c-0.9-0.3-2.3,0.1-3.3-0.1
		c0-1.4-0.1-3,0.1-4.3c1.5,0,3.3,0,4.6,0c0.5-0.7,0.2-1.7-0.1-2.3c-0.9-0.4-2-0.1-3.1-0.1c-1.5,0-3.1-0.2-4.1,0.2
		c0,0.4-0.1,1.1-0.1,1.7c0,0.2,0.2,0.4,0.2,0.5c0,0.3-0.2,0.5-0.2,0.8c0,0.7,0,1.5,0,2.3c0,3.8,0,8,0.1,11.6c2.3,0,5.4,0.1,7.6-0.1
		c0.6-0.7,0.3-2,0-2.8C105,94.3,102.9,94.2,101.4,94.3z"/>
	<path class="st0" d="M105.9,60.2c0.5-0.7,0.3-2.8-0.9-2.3c-1.8,0-3.4,0-4.9,0c-0.5,0-1.2-0.2-1.5,0.2c-0.1,0.5,0,1.6,0.2,2.2
		c-0.2,1-0.1,2.6-0.1,4c0,3.5-0.1,7.3,0,10.5c2.4,0.1,5.6,0,7.7,0c0.4-0.4,0.4-2.3-0.1-2.6c-0.2-0.2-0.5,0.1-0.8,0.1
		c-1.1,0.2-3.1,0.1-4.1,0.2c-0.1-1.7-0.1-3.9-0.1-5.7c1.1-0.2,2.5,0.2,3.5-0.1c0.1-0.6,0-1.5-0.1-2.1c-0.8-0.5-2.4,0-3.4-0.1
		c-0.1-1.3-0.1-3.1,0-4.4C102.9,60.2,104.6,60.2,105.9,60.2z"/>
	<path class="st0" d="M158.1,80c-0.7-0.3-2.3-0.3-3.2-0.1c-0.2,0.3-0.3,1.2-0.4,1.9c-0.5,2.9-1.2,5.5-1.7,8.4
		c-0.2,1.1-0.4,2.2-0.6,3.3c-0.2,1.1-0.6,2.2-0.4,3.2c0.7,0.2,1.9,0.2,2.5-0.1c0.3-0.9,0.3-1.9,0.5-2.8c0.8-0.3,2.2,0,3.2,0
		c0,1.1,0.3,2,0.5,3c0.9-0.1,1.8,0.1,2.5-0.1c0-1.4-0.3-2.8-0.6-4.2C159.6,88.2,158.9,84.1,158.1,80z M155.5,91.2
		c0.2-2,0.6-4.4,0.8-6.3c0.1,0,0.1,0,0.1,0.1c0.2,2.2,0.6,4.3,0.8,6.2C156.7,91.3,156,91.2,155.5,91.2z"/>
	<path class="st0" d="M185.7,80.3c-1.2,5.3-2.1,11-3.2,16.2c0.7,0.1,1.8,0.2,2.5,0c0.3-0.8,0.4-1.9,0.7-2.8c0.9-0.1,2.3-0.1,3.2,0
		c0.3,0.9,0.2,2.3,0.8,2.9c0.5-0.2,1.4,0,2-0.1c0.3-0.5,0.1-1.1-0.1-1.7c-0.1-0.3,0-0.6-0.1-1c-0.8-4.4-1.7-9.3-2.6-13.7
		C188.1,79.8,186.5,79.9,185.7,80.3z M186.3,91.2c0.2-1.8,0.5-4,0.9-5.8c0.1,0,0.1,0.1,0.2,0.1c0.1,1.8,0.7,3.9,0.7,5.8
		C187.6,91.3,186.9,91.2,186.3,91.2z"/>
	<path class="st0" d="M182.3,66.5c0,3.1-0.1,6,0.1,8.6c2.4,0.2,5.3,0.1,7.8,0c0.3-0.7,0.2-2.4-0.2-2.6c-0.3-0.1-1,0.2-1.4,0.2
		c-1,0.1-2.5,0.1-3.4,0.1c0-1.9,0-4-0.1-5.6c1,0,2.5,0.1,3.5,0c0-0.8,0.2-1.7-0.1-2.2c-0.4-0.5-1.1-0.2-1.9-0.2
		c-0.5,0-1.1,0.1-1.5,0c0-1.5-0.1-2.9,0-4.3c1.4-0.2,3.5,0.1,4.7-0.1c0.4-0.7,0-1.5-0.1-2.2c-0.2-0.1-0.4-0.2-0.7-0.3
		c-0.1,0-0.1,0-0.2,0.1c-2,0.5-4.7-0.4-6.6,0.2c-0.1,0.7,0,1.7,0.2,2.3c-0.1,0.2-0.1,0.3-0.2,0.6C182,62.7,182.3,64.7,182.3,66.5z"
		/>
	<path class="st0" d="M208.5,79.7c-0.3,0-0.5-0.1-0.8-0.1c-0.6,0-1.3,0.1-1.8,0.1c-0.6,0-1.1-0.3-1.5,0.2c0.3,5.4-0.1,11.4,0.2,16.9
		c0.8,0,2.3,0,3.9,0c1,0,3.4,0.2,3.8-0.2c0.6-0.5,0.1-2-0.1-2.7c-1.6,0.3-3.3,0.4-5,0.4c0.1-1.9,0-3.9,0-5.6
		c1.2-0.1,2.6,0.1,3.5-0.1c0-0.6,0.2-1.7-0.1-2.2c-0.6-0.8-2.6,0.2-3.4-0.2c0.1-1.4,0-2.8,0.1-4.2c1.6,0,3.2,0,4.6-0.1
		c0.4-0.6,0.1-1.6-0.1-2.3C210.8,79.4,209.7,79.7,208.5,79.7z"/>
	<path class="st0" d="M175.5,79.8c-0.7-0.1-1.9-0.2-2.5,0.1c-0.4,0.5-0.2,1.9,0.1,2.3c-0.1,0.3-0.2,0.4-0.2,0.7
		c-0.2,1.6,0.1,3.4,0.1,5.3c0,2.9,0,5.7-0.1,8.4c2.6,0,5.5,0,7.9,0c0.2-0.7,0.1-1.8-0.2-2.3c-1.4,0.2-3.5,0.1-5,0.2
		C175.6,89.2,175.6,84.7,175.5,79.8z"/>
	<path class="st0" d="M202.6,75c0.7,0.1,2,0.2,2.6-0.1c0.3-2.6-0.1-5.1,0.1-7.8c0.8,0.1,2.2-0.2,3,0.1c0.1,2.5-0.2,5.6,0.1,7.8
		c0.9,0.1,2.4,0.2,3.1-0.2c-0.1-2.7-0.3-5.1-0.2-7.8c0.1-3.2-0.1-6.4,0.1-8.9c-0.6-0.3-2.2-0.3-3,0.1c-0.1,2,0.1,4.7,0,6.5
		c-1,0.1-2.5,0.1-3.1,0c0.2-2.1,0.1-4.5,0.1-6.6c-0.9,0.1-2.1-0.1-2.9,0.1c0,1.4,0.1,2.9,0.1,4.3C202.5,66.9,202.3,71,202.6,75z"/>
	<path class="st0" d="M192.4,73.1c0.9,2.5,5.9,3,7.8,0.7c0.8-1.2,0.6-3.6,0.5-5.4c-0.8,0.2-1.9-0.1-2.8,0.1c-0.2,1.3,0.3,3.2-0.2,4
		c-0.3,0.5-2.1,0.5-2.5-0.1c-0.1-0.2-0.2-0.7-0.2-1c-0.1-1.7,0.2-4.8,0-6.8c-0.1-0.5-0.4-1.2-0.3-1.7c0-0.2,0.2-0.4,0.3-0.6
		c0.2-0.9,0-1.7,0.6-1.9c0.4-0.1,1.3-0.1,1.6,0c0.9,0.4,0.5,2.9,0.6,3.9c0.6,0.2,1.8,0.1,2.8,0.1c0.2-2.5,0.1-4.7-1.4-5.7
		c-1.7-1.1-5.1-0.8-6.2,0.7c-0.9,1.2-0.7,3.7-0.7,5.4c0,0.8,0,1.5,0,2.4C192.2,69.1,191.9,71.7,192.4,73.1z"/>
	<path class="st0" d="M200,85.3c0,0.5,0.2,1.2-0.2,1.4c-0.6,0.2-0.6-0.5-0.7-0.9c-0.6-1.3-1-3.1-1.4-4.7c-0.1-0.5-0.1-1.1-0.5-1.3
		c-0.9,0.2-2.2,0-3.1,0.1c-0.3,1.2-0.2,2.6-0.2,3.9c0,4.1,0,8.6-0.1,12.3c0.4,0.7,1.7,0.3,2.7,0.5c0.1-2.3,0.1-4.8,0.1-7.2
		c0-0.6-0.3-1.4,0.3-1.7c0.5,0.5,0.6,1.3,0.8,2c0.6,2.3,1.2,4.7,1.9,6.8c0.8-0.1,2.2,0,2.9-0.1c0.1-5.5,0-11.2,0.1-16.6
		c-0.7-0.2-2.1-0.2-2.7,0.1C200,81.4,200,83.7,200,85.3z"/>
	<path class="st0" d="M100.1,53.1c0.3-1,0.3-2,0.6-2.9c1,0.1,2.2,0,3.1,0c0.2,1,0.2,2.1,0.5,2.9c0.9,0.2,1.7,0,2.6,0
		c-0.2-0.8-0.3-1.7-0.4-2.6c-0.2-1.3-0.5-2.7-0.7-4c-0.2-0.9-0.3-1.5-0.5-2.3c-0.4-2-0.7-4.5-1.1-6.6c-0.1-0.4-0.2-1.6-0.7-1.5
		c-1,0.2-2.2-0.1-2.9,0.2c-0.4,2.1-0.9,4.3-1.1,6.3c-0.2,0.3-0.3,0.5-0.4,0.8c-0.2,1.3-0.5,2.9-0.6,4.1c0,0.5-0.3,1-0.4,1.4
		c-0.2,1.4-0.4,2.5-0.7,3.8c0.2,0.2,0.4,0.3,0.7,0.4C98.8,53,99.6,53.5,100.1,53.1z M102.2,42.6c0.6,1.4,0.7,3.6,1,5.1
		c-0.5,0.1-1.3,0-1.8-0.1C101.6,45.9,101.8,44.1,102.2,42.6z"/>
	<path class="st0" d="M26.5,7.7c-0.3,0.2-0.4-0.1-0.8,0.1c-0.1,0.3-0.4,0.5-0.8,0.5c-0.4,0.4-0.2,1.4,0.1,1.8
		c0.2,0.3,0.7,0.3,0.7,0.7c0.5,0.2,1.1,0.3,1.6,0.1c0.2-0.3,0.4-1.1,0.5-1.7C27.5,8.5,27.2,7.9,26.5,7.7z"/>
	<path class="st0" d="M0.4,51.7c0.1,0.1,0.1,0.3,0.2,0.4c-0.2,1.4,0.1,3.1-0.1,4.4c-0.1,0.2,0.2,0.1,0.2,0.3c-0.3,0.2-0.2,0.9,0,1.2
		c-0.3,0.2-0.4,1.2-0.1,1.4c-0.1,0.2-0.3,0.3-0.2,0.5c0,0.1,0.3,0,0.2,0.2c-0.2,0.2-0.2,0.5,0,0.7c-0.2,0.3-0.2,0.8,0.1,1.2
		c-0.4,0.2-0.1,0.7,0,1C0,64,1.2,65.2,0.5,66.1c0.2,0.2,0.1,0.5,0.2,0.9c-0.7,0.6,0.4,1.5-0.2,2.3c0.1,0.1,0.3,0.1,0.3,0.3
		c-0.1,0.2-0.3,0.1-0.3,0.4c0,0.1,0.3,0,0.3,0.2c-0.3,0.8,0.2,2.3-0.4,3.1c0.5,0.4-0.1,1.1,0.3,1.6c-0.1,0.1-0.3,0-0.3,0.2
		c0.2,0.8-0.1,1.9,0.1,2.5c-0.1,0.1-0.2,0.6-0.1,1c0,0.1,0.2,0.2,0.2,0.3c0,0-0.2,0.2-0.2,0.2c-0.1,0.4,0,0.9,0.2,1.2
		c-0.1,0-0.2,0-0.2,0.2c0.1,0.5,0,1.1-0.1,1.7c0,0.2,0.1,0.3,0.2,0.4c-0.2,0.1-0.3,1,0,1.1c0,0.1-0.3,0.2-0.1,0.3
		c0.1-0.2,0.1,0.1,0.2,0.2c0,0.3-0.2,0.4-0.3,0.6c0,0.1,0.2,0.1,0.2,0.2c-0.4,0.2,0.2,0.6-0.2,0.7c0,0.2,0.1,0.2,0.2,0.3
		C0.6,86,0.3,86,0.4,86.2c0,0.2,0.3-0.2,0.3,0.1c0.1,0.3-0.3,0.1-0.3,0.4c0.1,0.1,0.2-0.2,0.2,0c0,0.2-0.3,0.2-0.2,0.4
		c0,0.2,0.3-0.1,0.2,0.2c0.1,0.2-0.2,0-0.2,0.2c0.1,0.2,0.2,0,0.2,0.1c-0.3,0.4-0.4,0.7,0,1.1c-0.1,0.2-0.2,0.3,0,0.5
		c-0.1,0-0.1-0.1-0.2-0.1c0.2,0.5-0.1,1.1,0,1.6c0,0.1,0.2,0.2,0.2,0.3c0,0.3-0.2,0.5-0.1,0.8c0,0.1,0.2,0.2,0.2,0.4
		c0,0-0.2,0.1-0.2,0.1c0,0,0.1,0.4,0.1,0.4c0,0.1,0.3,0.3,0.2,0.5c-0.3,0.1-0.1,0.6-0.2,0.8c0.1,0,0.2,0,0.2,0.1
		c-0.1,0.1-0.2,0.1-0.2,0.3c0.2,0.8-0.1,1,0,1.7c0,0.1,0.3,0,0.3,0.1c0,0.2,0.1,0.7-0.2,0.8c0.1,0.2,0.2,0.2,0.2,0.5
		c-0.1,0.2-0.3-0.1-0.3,0.2c0.1,0.5,0,0.8,0.3,1c0,0.1-0.2,0-0.2,0.1c0.2,0.8-0.1,1.6-0.1,2.3c0,0.2,0.3,0.1,0.3,0.3
		c0,0.2-0.2,0.2-0.2,0.4c0.4,0.1,0.1,0.7,0.1,1c-0.1,0.1-0.3,0-0.4,0.1c0.2,0.2,0.5,0.6,0.2,1c-0.2,0.1-0.2-0.3-0.2,0
		c0,0.6,0,1.1-0.1,1.7c0,0.2,0.3,0.1,0.3,0.2c0,0.4,0.1,1.2-0.2,1.6c0.1,0,0.2,0,0.2,0.1c-0.5,0.2-0.2,0.7,0.1,1
		c0,0.2-0.2,0.2-0.2,0.3c0.2,0,0.2,0.3,0.2,0.5c-0.1,0.2-0.3-0.2-0.3,0.1c0.2,0.5-0.2,0.8-0.1,1.4c0.1,0,0.3-0.1,0.3,0.1
		c-0.2,1.2-0.1,1.7-0.4,2.6c0.4,0.3,0.2,1.2,0.1,1.5c0.5,0.5-0.2,1.5,0.2,1.9c0.1,0.3-0.3,0.2-0.2,0.4c0.2,0,0.2,0.2,0.2,0.2
		c-0.1,0.2-0.3-0.1-0.2,0.1c0,0.4,0.1,0.3,0.2,0.4c-0.1,0-0.3-0.1-0.2,0.1c0,0.8,0.1,1,0,1.8c0.1,0.1,0.2,0.2,0.3,0.3
		c-0.2,0.1-0.4,0.1-0.3,0.4c0.2,0,0.2,0.1,0.4,0.3c-0.1,0.1-0.3,0-0.4,0.1c0.2,0.7-0.1,1.4,0.4,1.9c-0.2,0.1-0.3,0.4-0.3,0.7
		c0.5,0.3,0.2,0.8,0.4,1.3c-0.2,0.2-0.2-0.1-0.4-0.1c0.1,0.2,0,0.3,0,0.5c0.2,0.1,0.2-0.1,0.3,0c0,0.2,0.1,0.6,0.1,0.7
		c-0.1,0-0.3-0.2-0.2,0.1c0,0,0,0.1-0.1,0.1c-0.1,0.3,0.4,0.1,0.3,0.4c0,0.4-0.2,0.6-0.2,0.8c0.3-0.1,0.1,0.4,0.2,0.8
		c0,0.2-0.2,0.2-0.2,0.4c0.2,0,0.3,0.2,0.4,0.4c-0.1,0.2-0.3,0.3-0.4,0.5c0,0.3,0.3,0.2,0.4,0.4c-0.5,0.4-0.2,1.1,0.1,1.6
		c1.9-0.5,4-0.3,6-0.3c0.5,0,1.2-0.1,1.7-0.2c0.5-0.1,0.9-0.4,1.3-0.4c0.2,0,0.4,0.1,0.6,0.1c2.1,0.1,4.2-0.4,6.2,0.1
		c0.3,0.1,0.6,0.3,0.9,0.3c1.3,0.1,2.5,0.3,3.7-0.1c2.2,0.7,4.4,0.2,6.6,0.1c0.9,0,1.7,0.2,2.6,0.2c2.9,0.1,5.9-0.2,8.9-0.1
		c1.6,0,2.8,0.1,4.1,0c1.3,0.6,3.3,0.5,5,0.7c0.1,0,0-0.2,0.2-0.2c0.3,0,0.4,0.3,0.7,0.3c0.5-0.2,1.2-0.4,1.8-0.1
		c0-0.1,0.2-0.2,0.3-0.2c5.4,0.7,10.4,0,15.3-0.5c1.1-0.1,2.3,0.2,3.4,0.2c0.8,0,1.5,0.1,2.3,0.1c0.4,0,0.8-0.2,1.3-0.2
		c1.1,0,2.1,0.4,3.3,0.2c0.9,0.2,2.7,0.4,3.5,0c1.1-4.5,0.7-10.6,0.6-15.3c0.2-1.1,0.4-2.7,0.2-3.6c0.4-3-0.1-5.7-0.2-8.6
		c0-2,0.1-4,0.1-5.9c0-2,0.3-4,0.2-5.9c0-1.2,0-2.4,0.1-3.7c0.1-0.9-0.1-1.9-0.1-2.8c0.1-2.2,0.4-4.9,0.5-6.8
		c-0.1-4.7-0.6-9.6-0.5-14.4c0.1-2.5,0.3-5-0.1-7.3c-0.1-0.7-0.5-1.2-0.5-1.7c-0.2-2,0.3-4,0.1-5.6c-0.2-1.8,0.4-4,0.4-6.1
		c0-1.1,0-2.1,0-3.1c0.3-1.5,0.3-3.1,0.1-4.6c0.8-4.8-0.4-10.6-0.1-15.3c-0.4-0.7-0.1-1.8,0-2.3c0.1-0.4,0-0.9,0-1.4
		c0-1.8,0-4,0.1-5.7c0.1-2.9,0.4-5.9,0.3-8.3c0.2-0.3,0-1,0.3-1.3c-0.1-0.2-0.1-0.2-0.1-0.5c-0.3-0.2-0.5-0.3-1-0.2
		c-2.7-0.4-5.5-0.3-8.3,0c-3.2,0.3-6.6,0-9.9-0.1c-2.2-0.1-4.4-0.2-6.5-0.3c-1.5-0.1-3.1-0.2-4.6-0.2c-1,0-2.6,0.3-3.4-0.1
		c-0.7,0.5-1.8,0.3-2.9,0.4c-2.2,0.2-4.8,0.3-6.9,0.2c-1.4,0-2.7-0.2-4.1-0.1c-1.9,0.1-3.9,0-5.9,0c-2.1,0-4.1,0-6.3-0.1
		c-1.1,0-2.2,0.3-3.1,0.2c-0.5,0-1-0.2-1.5-0.3c-1.1-0.2-2.4-0.2-3.5-0.2c-1.4,0-2.8,0.3-4.1,0.2C9.4,0.4,8.8,0.1,8.1,0.1
		C5.5,0.1,3,0.5,0.3,0c-0.4,0.8,0,2.1-0.1,2.8c0,1.6,0,3,0,4.4c0,0.1,0.1,0.2,0.2,0.2c-0.3,0.3,0.1,0.7-0.2,1c0,0.1,0.2,0.2,0.2,0.3
		c-0.4,0.6-0.1,1.3-0.1,2c0,1-0.2,2-0.1,3.1c0,0.2,0.2,0.2,0.2,0.4c-0.1,0.3,0,0.8-0.2,1c0.1,0.1,0.1,0.3,0.2,0.4
		c-0.5,0.3,0.1,0.9,0.1,1.1c-0.1,0,0-0.2-0.2-0.1c0.2,1.1-0.3,2.6,0.1,3.8c-0.4,0.7-0.3,2.1-0.1,2.8c-0.3,0-0.2,0.5-0.1,0.7
		c-0.3,0.1-0.1,0.5-0.1,0.8c0,2.6-0.2,5.5,0,8.1C-0.1,32.6,0.1,33,0,33c0.2,2.3,0.1,4.7,0.2,7.3C0.4,44,0.7,48.3,0.4,51.7z
		 M1.2,27.3c0,0,0.1-0.1,0.1-0.1c0-0.1,0-0.2,0.1-0.2c2.6,0,4.7,0.4,5.7,2c0.7,0.6,1.9,0.6,2.6,1.1c-0.4,0.8-1.5,1-2.4,1.4
		c-0.9,0.4-1.8,0.8-2.8,1.1C3.5,33,2.2,33,1.3,33.4c-0.1-0.3-0.2-0.5-0.1-0.8C1,30.6,1.2,29.2,1.2,27.3z M44.6,22.3
		c-0.2-0.7-1.9,0.1-2.3,0.2c-1.3,0.2-2.7,0-4-0.2c-0.7-0.1-1.3-0.2-1.9-0.4c-1.1-0.3-1.7-1-2.9-1.1c-1-0.7-2-0.5-3.2-0.9
		c-0.6-0.2-1.4-0.7-2.3-0.9c-1.4-0.3-2.6,0.4-3.8,0.8c-0.7,0.2-1.5,0.4-2.2,0.6c-1.4,0.4-2.8,1-4.2,1.4c-1.3,0.4-2.3,0.7-4.1,0.8
		c-0.7,0-1.4,0.2-1.9,0.1c-1-0.1-2.1-0.7-3.1-1.1c-0.5-0.2-0.9-0.5-1.4-0.7c-0.8-0.4-1.4-0.9-2.4-1.3c-0.6-0.2-1.4-0.6-2.3-0.5
		c-0.5,0-0.6,0.3-1.2,0.3c-0.2-0.5-0.1-1.6,0.1-2.1c2.8-0.6,4.9,1.2,7.1,2c0.4,0.1,0.8,0.3,1.2,0.4c0.6,0.2,1.1,0.5,1.8,0.6
		c0.1,0,0.2,0,0.4,0c0.1,0,0.2,0.1,0.3,0.1c0.2,0,0.4-0.1,0.6-0.1c0.2,0,0.4,0.2,0.6,0.2c0.5,0,1.1-0.1,1.6-0.1c0.6,0,1.2,0,1.7-0.1
		c1.9-0.3,3.4-1.1,5.2-1.8c0.5-0.2,1.2-0.3,1.8-0.5c1.2-0.4,2.5-1.1,4.1-1.2c0.5,0,1,0.1,1.5,0.1c0.3,0,0.7-0.2,1-0.2
		c0.4,0,0.8,0.4,1.1,0.6c0.4,0.2,0.9,0.2,1.4,0.4c0.2,0.1,0.3,0.3,0.5,0.4c0.8,0.4,1.5,0.8,2.4,1.1c1.3,0.5,2.8,0.4,4.7,0.3
		c2.1-0.1,3.8-0.2,5.2-1.1c0.9-0.1,1.9-0.6,2.8-0.9c1.1-0.1,2.3-0.6,3.6-0.9c0.6-0.1,3.1,0.3,3.2-0.5c0.1-1.1-2.6-0.7-3.3-0.6
		c-2.3,0.5-4.6,1.1-6.7,1.9c-0.8,0.3-1.5,0.7-2.3,0.8c-1,0.2-2.2,0-3.2,0.1c-1.1,0.1-2.1,0.4-3.2,0.1c-1.4-0.4-2.6-1.3-4-1.8
		c-0.6-0.2-1.5-0.2-2.3-0.3c-0.7-0.1-1.5-0.3-2.1-0.4c-1.2-0.1-2.8,0.3-4,0.7c-1.3,0.4-2.5,0.9-3.5,1.3c-1.2,0.5-2.3,1-3.6,1.2
		c-1.3,0.2-2.6,0.2-4.1,0.5c-1.2-0.2-2.3-0.8-3.4-1.3c-0.4-0.2-0.8-0.2-1.2-0.4c-0.3-0.1-0.6-0.4-1.1-0.6c-0.9-0.4-1.6-0.8-2.7-1.1
		C4,16.2,3.1,16,2.6,16.1c-0.5,0.1-0.7,0.5-1.2,0.4c-0.1-0.8,0-1.7,0.1-2.4c0.7,0,1.4-0.2,2-0.1c1,0.1,2.1,0.9,3.1,1.3
		c1,0.5,2.1,1,3.1,1.3c0.3,0.1,0.7,0.1,1,0.2c0.6,0.2,1.4,0.6,2.2,0.7c1.3,0.1,2.5-0.1,3.7-0.3c1.4-0.3,2.9-0.6,4.1-1.1
		c1.5-0.7,2.9-1.7,4.6-2.1c0.7-0.2,1.3-0.1,2-0.4c0.7,0.1,1.1,0.3,1.6,0.5c0.3,0.1,0.7,0.1,0.9,0.2c0.5,0.2,0.9,0.6,1.4,0.8
		c0.2,0.1,0.5,0,0.7,0.1c0.2,0.1,0.4,0.3,0.6,0.4c0.8,0.3,1.9,0.4,2.9,0.6c1.5,0.4,2.8,0.5,4.3,0.5c3.8,0.2,7.1-1.8,10.2-2.9
		c1.6-0.3,3.5-0.5,5.3-0.6c0.8,0,2,0,2.9,0.2c1.1,0.3,1.9,1.2,2.9,1.6c0.3,0.1,0.8,0.3,1.2,0.4c0.2,0,0.5,0,0.8,0
		c0.7,0.1,1.3,0.5,1.9,0.7c1,0.4,1.9,0.7,3.2,0.5c0.7-0.1,1.3-0.3,1.9-0.4c0.3,0,0.5-0.2,0.8-0.3c0.3-0.1,0.6,0,0.9-0.1
		c0.5-0.1,1.1-0.3,1.6-0.5c0.9-0.4,1.8-1.1,2.9-1.4c1.3-0.4,2.7-0.4,4.3-0.5c0,0.6-0.2,1.4-0.2,2.2c-2.3,0.4-4.2,0-6,0.8
		c-1.5,0.6-2.8,1.8-4.3,2.1c-0.7,0.1-1.2,0-1.8-0.1c-1.2-0.1-2.6-0.1-3.7-0.4c-0.8-0.2-1.5-0.7-2.4-0.6c0,1,1.1,1.2,2.2,1.6
		c1.7,0.5,5,1.1,6.8,0.2c1.4-0.6,2.9-1.5,4.5-2c1.3-0.4,3.3-0.4,4.7-0.4c0.2,0.7,0.1,1.6-0.1,2.3c-3,0.4-5.4,0.3-7.6,1.5
		c-1,0.5-2,1.2-2.9,1.4c-1.1,0.1-2.3,0-3.2-0.1c-1.5-0.2-3.2-0.3-4.6-0.8c-0.9-0.3-1.8-0.8-2.7-1.1c-0.9-0.3-1.8-0.8-2.8-1
		c-1-0.1-2-0.1-3.1-0.1c-1.4,0.1-3.1,0.1-4.3,0.7c0.1,0.2,0.5,0.3,0.7,0.5c0.6-0.2,1.2,0.1,1.9,0.1c1.8,0,3.4-0.4,5.1,0
		c0.5,0.1,1,0.4,1.6,0.6c0.6,0.2,1.2,0.3,1.7,0.5c1.6,0.6,3.1,1.5,4.9,1.6c0.2,0,0.5-0.1,0.7-0.1c1.3,0,2.8,0.5,4.1,0.2
		c0.6-0.1,1.6-0.5,2.3-0.8c0.1-0.1,0.3-0.1,0.4-0.2c0.6-0.3,1.6-0.7,2.5-1c1.7-0.6,3.5-0.8,5.5-0.7c0.2,0.7,0,1.7-0.2,2.5
		c-0.4,0.1-0.5-0.1-0.9-0.2c-1.6-0.2-3.9,1.1-5.2,1.6c-0.8,0.3-1.7,0.5-2.7,0.7c-1,0.2-1.8,0.6-2.5,0.7c-2.3,0.2-5-0.5-6.6-1.1
		c-1.4-0.6-2.6-1.2-4.1-1.7c-0.8-0.3-1.4-0.6-2.5-0.7c-1.2-0.1-2.6-0.1-3.7,0.1c-0.4,0.1-0.6,0.3-1,0.4c-0.3,0.1-0.6,0-0.8,0.1
		c-0.6,0.1-1.1,0.4-1.6,0.6c-1.1,0.5-2.4,0.9-3.7,1.4c-0.7,0.1-1.6,0.4-2.3,0.7c-1.7,0.2-3.2,0.1-4.9-0.5c-3.3-1.1-6.5-3-10.7-2.6
		c-2.1,0.2-4.1,0.7-5.9,1.3c-1.8,0.5-3.6,1.4-5.9,1.7c-1.1,0.1-2.2,0.3-3.3,0.4C7.8,26,5.7,21.4,1.4,22.8c-0.3-0.8-0.2-1.9,0.1-2.6
		c3.1-0.3,5.1,1.7,7.2,2.7c1.6,0.8,3.9,1.1,6.2,0.8c1.4-0.2,2.8-0.6,4.1-1c2-0.7,4-1.4,6.1-2.1c1.7-0.6,3.6-0.1,5.2-0.1
		c3,1.2,6,3,9.9,3.2c0.3,0.1,0.1-0.2,0.3-0.2c0.5,0.3,1.5,0.1,2.2-0.1C43.2,23.3,44.8,23,44.6,22.3z M1.4,23.4
		c0-0.1,0.1-0.1,0.2-0.2c0.7,0.3,1.4,0.2,2.2,0.4c0.8,0.2,1.4,0.7,2.2,0.8c1.6,1.3,3.4,2.3,5.6,2.5c1,0.1,2.2-0.1,3.3-0.2
		c1.1-0.1,2.2-0.3,3.2-0.5c0.8-0.2,1.5-0.6,2.3-0.8c3-1,6.4-2,10.1-1.4c1,0.2,1.8,0.7,2.8,1c0.9,0.3,1.8,0.5,2.7,1
		c0.2,0,0.3-0.1,0.5-0.1c0.8,0.5,1.2,0.6,2.2,0.8c0.5,0.1,0.9,0.3,1.2,0.3c1.6,0,3.6-0.2,4.9-0.8c0.8-0.4,1.5-1.1,2.3-1.4
		c0.7-0.3,1.4-0.5,2.2-0.7c0.3-0.1,0.7-0.3,1.1-0.4c0.4-0.1,0.8-0.3,1.1-0.4c0.7-0.1,1.6,0,2.3,0c2.1,0,3.8,0.5,5.8,1.1
		c2,1.3,4.6,2.2,7.2,2.5c1.4,0.2,2.7-0.2,4.3-0.5c0.9-0.2,1.9-0.3,2.6-0.6c2.2-0.7,4.3-2.3,6.7-1.6c0,0.7,0.1,1.6-0.1,2.2
		c-3.4,0.2-7,0.7-10.1,1.8c-1.5,0.5-3.7,1.2-5.3,0.9c-1.2-0.2-2.5-0.7-3.6-1.1c-1.1-0.4-2.2-1.1-3.3-1.4c-1.5-0.5-4.3-0.6-6-0.5
		c-0.6,0.1-1.3,0.3-2,0.4c-1.9,0.3-3.9,0.8-5.6,1.3c-1.7,0.5-3.5,1.1-5.3,1.6c-0.5,0.1-1.3,0.5-1.7,0.5c-0.3,0-0.9-0.4-1.3-0.7
		c-2.7-1.5-6.1-3.2-10.4-2.9c-1,0.1-2.2,0.3-3.4,0.7c-0.4,0.1-0.7,0.4-1.1,0.5c-0.3,0.1-0.7,0.1-1,0.2c-1,0.3-2.1,0.5-3.2,0.7
		c-0.7,0.1-1.4,0.4-2.1,0.5c-0.8,0.1-1.6,0.1-2.4,0.2c-0.4,0.1-0.7,0.4-1.1,0.4c-0.5,0.1-1.2-0.2-1.7-0.4c-0.6-0.2-1.3-0.3-1.7-0.5
		c-1-0.5-1.6-1.3-2.7-1.8c-0.8-0.3-1.9-0.6-2.8-0.5c-0.5,0-0.8,0.3-1.3,0.2C1.1,25.6,1.2,24.4,1.4,23.4z M80.6,59.6
		c0,0.9,0.2,1.9-0.1,2.6c-3.9,0.1-7-1.7-10.2-2.9c-2.4-0.9-4.6-1.9-7.3-2.7c-1.9-0.6-4.1-0.9-6.2-1.1c-0.9-0.1-1.9-0.3-2.9-0.3
		c-1.8,0-3.8,0.2-5.5,0.5c-0.7,0.1-1.5,0.3-2.2,0.5c-4,1.1-7.4,3.1-10.9,4.6c-2.3,0.9-5.3,1.6-8,1.7c-1.8,0.1-3.7-0.5-5.4-0.8
		c-2.6-0.6-4.9-1.4-7-2.5c-0.7-0.4-1.3-0.8-2-1.2c-2.6-1.5-5.7-2.4-9.2-2.9c-0.7-0.1-1.3,0-1.9,0.1c0-2.4-0.3-3.9,0-6
		c1.9-0.2,3.7,0.8,5.3,1c1.1,0.5,2.3,0.9,3.4,1.4c1.1,0.4,2.2,1,3.3,1.5c1.6,0.7,2.8,1.9,4.5,2.6c1.3,0.5,2.7,1,4.3,1.3
		c0.3,0.1,0.6,0.1,0.9,0.1c0.7,0.1,1.3,0.2,2,0.2c2,0,3.8-0.1,5.9-0.5c0.2,0,0.5-0.2,0.5-0.2c0.4-0.1,0.9,0,1.3-0.1
		c0.8-0.2,1.7-0.3,2.5-0.4c1.4-0.5,2.7-0.8,3.8-1.5c1.1-0.6,2.2-1.2,3.5-1.7c2.3-1.1,5.1-2.2,8.1-2.5c2.5-0.2,5.1,0.1,7.5,0.3
		c0.6,0.3,1.3,0.4,1.9,0.7c0.6,0.2,1.2,0.5,1.8,0.7c1.2,0.5,2.6,0.8,3.7,1.4c0.2,0.1,0.3,0.2,0.5,0.4c4.4,1.4,8.8,2.8,13.7,3.4
		C80.7,57.6,80.5,58.7,80.6,59.6z M1.6,45.6c0-0.7-0.2-2.6,0.2-2.8c0.4-0.2,1.7,0.1,2.4,0.2c0.6,0.1,1.2,0.3,1.9,0.4
		c0.6,0.1,1.3,0.2,1.9,0.4c0.8,0.3,1.6,0.6,2.3,1c1.4,0.6,2.7,0.9,3.8,1.6c0.5,0.1,0.7,0.6,1.3,0.6c0,0.2,0.1,0.2,0.2,0.3
		c0.5,0.4,1.4,0.6,1.9,0.8c0.4,0.2,0.7,0.4,1.3,0.5c0.5,0.2,1.1,0.3,1.8,0.5c0.6,0.2,1.1,0.4,1.8,0.7c0.1,0,0.1,0,0.2,0.1
		c0.4,0.2,1.1,0,1.5,0.1c3.7,0.2,7,0.2,9.9-0.7c0.3-0.1,0.5-0.2,0.8-0.3c3.3-0.8,6.4-2.3,9.3-3.8c2.1-1,4.7-2.1,7.7-2.3
		c0.9-0.1,1.9-0.1,2.8-0.1c1.9,0,3.7,0.8,5.7,0.9c3.2,0.8,6.5,2.2,9.4,3.7c2.8,1,5.6,2,8.7,2.6c0.6,0.1,1.2,0,1.7,0.4
		c-0.1,1.6,0,3.7,0,5.3c-1.6,0.2-3.1-0.4-4.5-0.7c-1.5-0.4-3-0.7-4.4-1.1c-2-0.6-3.9-1.5-5.9-2.2c-1.3-0.4-2.4-1-3.8-1.5
		c-2.1-0.8-4.9-1.2-7.8-1.3c-2.3-0.1-4.8,0.2-6.9,0.8c-1,0.3-2,0.7-3,1.1c-1.4,0.6-2.8,1-4,1.7c-1.3,0.7-2.5,1.6-4.2,2
		c-1.3,0.3-2.6,0.5-4,0.7c-2.6,0.5-5.3,0.8-8,0.5c-0.6-0.1-1.3-0.3-1.9-0.4c-1.3-0.3-2.3-0.5-3.4-1c-1.2-0.5-2.2-1.5-3.4-2.1
		c-0.6-0.3-1.3-0.5-1.9-0.8c-3-1.5-6.7-2.6-10.5-3.2c-0.3,0.1-0.5,0.2-0.9,0.2C1.7,47.8,1.6,46.6,1.6,45.6z M1.8,89.8
		c0.7-0.1,2-0.1,2.9,0c1.8,0.1,3.2,1,4.7,1.4c0.1,0.2,0.5,0.2,0.6,0.5c1.8,0.6,3,1.8,4.9,2.4c0.7,0.6,1.5,0.8,2.4,1.1
		c0.5,0.2,1,0.6,1.7,0.6c0.1,0.3,0.5,0.2,0.8,0.4c0.2,0.1,0.3,0.3,0.4,0.3c0.4,0.1,1,0.1,1.5,0.2c0.3,0.1,0.5,0.2,0.8,0.3
		c1.9,0.4,4.1,0.2,6,0.5c-0.3,0.5-1.1,0.5-1.9,0.6c-1,0.1-3,0.1-4.5,0.1c-1.5-0.1-2.9-0.3-4.3-0.3c-2.3,0.1-5.4-0.2-7.6-0.5
		c0,0,0-0.1-0.1-0.1c-1-0.3-1.7-1-2.6-1.3c-1.5-0.5-4-0.8-5.6-0.4c-0.3-0.7-0.1-1.7-0.1-2.7C1.7,91.8,1.7,90.8,1.8,89.8z M32.5,99.2
		c1.4-0.2,2.8,0.2,4.2,0.1c0.6,0,1.2-0.3,1.7-0.3c2.4-0.2,4.8,0.1,7.1-0.2c0.5-0.1,1.3,0,2.1,0c0.6,0,1.3-0.2,1.6,0.3
		c-0.1,0.3-0.5,0.3-0.8,0.4c-0.4,0.3-1,0.5-1.5,0.7c-2.4,1-5.5,1.6-8.6,2.2c-1.9,0.4-3.8,0.9-5.6,1.4c-1.3,0.3-2.7,0.5-4,0.7
		c-2.5,0.4-4.8-0.3-7.2-0.8c-1.7-0.4-3.3-0.9-4.7-1.7c0.4-0.5,1.1-0.5,1.6-0.6c0.6-0.2,1.2-0.3,1.7-0.4c1.8-0.5,3.6-1.3,5.5-1.3
		c0.9,0,1.8,0.1,2.7,0.1C29.7,99.6,31.2,99.3,32.5,99.2z M30.4,97.4c0-0.2,0.2-0.1,0.3-0.1C30.6,97.5,30.5,97.5,30.4,97.4z
		 M59.4,97.7c-1.4,0-2.7,0-4.3,0.1c-0.6,0-1,0.1-1.6,0.1c-1-0.1-2.4-0.4-3.5-0.5c-0.6,0-1,0-1.4-0.2c2.8-0.9,6.1-1.1,9.6-0.7
		c1.5,0.2,2.7,0.4,3.6,1.1C61.1,98,60.1,97.7,59.4,97.7z M64.3,98.8c0.2,0.1,0.3,0.2,0.5,0.3c2.1,0,4.1,0,6.1,0c1,0,2.1,0.1,3,0.5
		c-0.3,0.5-0.9,0.4-1.4,0.6c-1.1,0.3-2.1,1.1-3.3,1.3c-0.8,0.5-2,0.6-2.9,1.1c-0.5-0.1-0.8,0.2-1.1,0.2c-0.9,0.2-2,0.3-2.9,0.5
		c-0.3,0.1-0.5,0.2-0.8,0.3c-0.2,0-0.4,0-0.6,0c-0.6,0.1-1.1,0.4-1.7,0.5c-1.2,0.3-2.6,0.5-4.1,0.5c-3.8,0.1-7.3-0.9-10-2.4
		c0.5-0.5,1.3-0.6,1.9-0.8c1.5-0.6,3.1-1.4,4.1-2.4c0.5-0.3,0.9-0.1,1.5,0c1.2,0.1,2.6-0.1,4-0.1C59.2,98.8,61.8,99,64.3,98.8z
		 M7.7,97.3c-1,0.4-3.3,0.2-4.9,0.5c-0.3,0-0.6,0.2-1,0.1c-0.1-0.3,0-1.1,0-1.6C3.6,96.4,6.4,96.3,7.7,97.3z M1.8,99.1
		c1-0.5,2.5-0.1,3.8-0.1c1,0,1.8-0.1,3.1-0.1c0.4,0,0.8,0.1,1.1,0.1c0.7,0,1.4-0.3,2.1-0.4c0.7-0.1,1.8,0.2,2.6,0.3
		c0.9,0.1,1.9,0.1,2.9,0.1c0.9,0.1,1.8,0.2,2.6,0.2c0.4,0,0.8-0.1,1.1,0.2c-0.6,0.6-1.6,0.4-2.4,0.6c-1.5,0.3-3,1-4.6,1.3
		c-3.8,1.5-8.3,2.6-12.5,3.1C1.5,102.8,2.2,100.9,1.8,99.1z M1.6,105.2c1.7-0.1,3.3-0.3,4.9-0.6c1.1-0.2,2.4-0.3,3.6-0.8
		c0.4-0.1,0.7-0.3,1.1-0.4c1.1-0.3,2.4-0.6,3.5-1c0.6-0.2,1.1,0.4,1.8,0.7c0.3,0.1,0.6,0.2,0.8,0.3c1.4,0.6,3.3,1.1,5,1.6
		c1.4,0.4,2.8,0.8,4.1,0.8c1.5,0,3-0.2,4.4-0.4c1.4-0.2,2.8-0.5,4.1-0.8c2.6-0.7,5.3-1.2,8-1.9c1.3,0.5,2.1,1.1,3.4,1.5
		c1.3,0.4,2.5,0.9,4,1.3c4,1,8.1,0.2,12-0.8c1.5-0.4,3.2-0.7,4.9-1.2c0.5-0.2,1.1-0.5,1.6-0.5c0.3,0,0.7,0.1,1.1,0.1
		c0.3,0,0.8-0.1,1.1,0c0.6,0.1,1.3,0.7,1.8,1c2,1.3,4.1,2.5,7.4,2.3c0,0.6,0.1,1.4-0.1,1.9c-1.4,0.1-3-0.2-4.2-0.7
		c-1.2-0.4-2.3-1-3.5-1.3c-2.4-0.6-5.3-1.3-8-0.8c-1.8,0.3-3.5,1-5.4,1.4c-0.9,0.2-1.9,0.3-2.9,0.5c-1.2,0.3-2.3,0.8-3.6,0.7
		c-1.8-0.1-3.5-0.6-5.3-1.2c-2.1-0.7-4.1-1.7-6.5-1.7c-0.3,0-0.6,0-1,0c-3.4-0.1-7,1.4-10.5,1.9c-0.9,0.1-1.7,0.3-2.5,0.5
		c-0.8,0.1-1.8,0.2-2.6,0.2c-1.5-0.1-2.7-0.4-3.6-1.2c-1-0.5-2-0.6-3.1-0.9c-1.4-0.4-2.4-1.1-3.9-1.3c-1.1-0.1-2.1,0.1-3.1,0.4
		c-1.9,0.5-3.5,1-5.1,1.9c-1.2,0.6-2.4,1.3-4,1.1C1.3,107,1.6,105.9,1.6,105.2z M79.9,105.2c-3.7,0.3-5.9-1.9-8.3-3.3
		c0.4-0.6,1.3-0.7,2.1-1c1-0.4,2-1.1,3.2-1.1c1.1,0,2.1,0,3.3,0.1C80.1,101.4,80.2,103.9,79.9,105.2z M80.1,98.6
		c-1.2,0.2-2.7-0.2-4,0.1c-2.4-0.6-5.2-0.7-7.6-0.5c-0.8-0.1-1.5-0.5-2.3-0.6c-0.5-0.1-1,0-1.5-0.1c-0.9-0.2-1.7-0.8-2.7-1.3
		c-0.6-0.2-1.3-0.2-1.9-0.4c-0.1,0-0.2-0.1-0.4-0.2c-2.2-0.5-4.5-1-7-0.7c-1.7,0.2-3.3,0.6-4.9,0.9c-1.5,0.3-2.9,0.9-4.1,1.7
		c-2.2-0.2-4.5,0.2-6.8,0.2c-1.4,0-2.7-0.3-4.2-0.3c-0.6,0-1.7,0.3-2.1-0.2c1.3-0.5,3-0.7,4.4-1.3c5.6-2.1,10.4-5.8,17.4-6.6
		c2.9-0.3,6.4,0.2,8.7,0.9c1.8,0.5,3.3,1.3,4.9,1.9c0.2,0,0.2,0.2,0.3,0.3c0.8,0.3,1.6,0.6,2.2,1.1c0.9,0.1,1.6,0.8,2.5,1.2
		c0.4,0.2,0.9,0.3,1.4,0.5c0.4,0.2,0.9,0.4,1.3,0.5c1.4,0.5,2.7,1,4.4,1.1c0.7,0,1.4-0.2,2,0.1C80.3,97.6,80.2,98.2,80.1,98.6z
		 M80,95.8c-2.4,0.4-4.5-0.6-6.4-1.3c-2-0.7-3.8-1.6-5.6-2.5c-1.9-0.8-3.5-2-5.6-2.5c-2-0.5-4.1-1.1-6.5-1.4c-1.2-0.1-2.5,0-3.7,0.1
		c-5.1,0.5-9.1,2.5-13.3,4.5c-1,0.5-2,1.2-3,1.6c-0.4,0.2-0.7,0.2-1.1,0.3c-1.8,0.6-4.3,1.3-6.5,1.5c-5,0.4-8.7-1.1-12.3-2.7
		c-2.5-1.1-5-2.7-7.7-3.8c-0.9-0.4-1.9-0.8-2.9-0.9c-1.4-0.2-2.8,0-4,0.1c-0.1-1.9-0.1-4.4,0.1-6.1c0.1,0,0-0.2,0.1-0.2
		c1-0.1,1.8,0.3,2.6,0.5c0.6,0.2,1.3,0.2,1.9,0.4c0.5,0.2,1.1,0.5,1.7,0.7c1.7,0.7,3.3,1.4,5,2c1.2,0.4,2.3,0.8,3.4,1.4
		c1,0.6,2.1,1,3.1,1.6c1,0.2,1.7,0.4,2.6,0.6c0.7,0.2,1.5,0.6,2.3,0.7c0.8,0.1,1.7,0,2.6,0c1.6,0,3,0.1,4.8-0.3
		c1.7-0.3,3.4-1.1,5.1-1.7c3.4-1.2,6.4-2.7,9.7-4c3-1.1,6-2.1,9.8-1.6c1.1,0.2,2.3,0.3,3.4,0.4c1.6,0.2,2.9,0.8,4.3,1.1
		c1.2,0.7,2.5,1.2,3.8,1.9c1.2,0.6,2.3,1.4,3.6,2c2.5,1.2,5.4,2,8.7,2.3C80.1,92.3,80,93.8,80,95.8z M1.4,42c-0.2-1.7,0-4,0-5.5
		c0-0.1,0.1-0.1,0.2-0.2c3,0.2,6.2,0.7,8.4,1.5c0.6,0.5,1.5,0.6,2.2,1c0.2,0.1,0.4,0.4,0.6,0.5c0.3,0.2,0.7,0.2,1.1,0.4
		c1.9,0.9,3.9,1.9,6.2,2.5c0.4,0.1,0.7,0.3,1,0.4c0.5,0.2,1.2,0.2,1.7,0.4c1.4,0.3,2.6,0.6,4.1,0.6c3.4-0.1,6.5-0.4,9.5-1.6
		c2.8-1.1,5.7-2.5,8.4-3.6c2.5-1,5.4-1.3,8.6-1.5c1.9-0.1,4.2,0,6.2,0.5c0.8,0.2,1.5,0.6,2.3,1c0.8,0.3,1.6,0.6,2.3,1
		c1.5,0.7,3,1.3,4.5,1.9c1.5,0.6,3.1,0.9,4.8,1.4c1.6,0.4,3.6,1,5.3,0.8c0.5,0,0.9-0.3,1.4-0.1c0.2,0.3-0.1,0.6-0.2,0.9
		c-0.3,1.4-0.1,3.6-0.5,4.8c-0.5,0.2-1.1-0.1-1.6-0.2c-1.4-0.3-3.1-0.7-4.6-1.2c-1.2-0.4-2.4-0.9-3.5-1.4c-1.2-0.4-2.2-1.1-3.4-1.5
		c-0.5-0.2-1-0.2-1.5-0.4c-0.2-0.1-0.3-0.3-0.5-0.4c-0.5-0.2-1-0.3-1.5-0.5c-0.5-0.2-0.9-0.4-1.4-0.6c-1-0.3-2.1-0.4-3.2-0.6
		c-0.7-0.1-1.4-0.4-2.1-0.5c-2-0.5-4.5-0.3-6.7,0.1c-3.2,0.5-5.4,1.8-7.8,3c-2.3,1.1-5.1,2-7.6,2.9c-3.3,1.1-7.1,1.3-10.7,1
		c-0.8-0.1-1.7-0.3-2.6-0.5c-1.4-0.4-2.7-0.6-3.7-1.4c-1.1-0.4-2.1-1.1-3.2-1.7c-2.2-1-4.5-1.9-7.2-2.6c-1.2-0.3-2.7-0.9-4.1-0.8
		C2.3,41.7,2,42.1,1.4,42z M80.1,42.4c-2.6,0.2-5-0.5-6.9-1c-1.6-0.4-3.1-0.7-4.5-1.4c-1.5-0.7-2.9-1.2-4.4-1.9
		c-0.8-0.4-1.5-0.8-2.3-1.1c-2.4-1-5.3-1.5-8.6-1.4c-1.3,0-2.6,0.4-3.9,0.5c-0.7,0.1-1.4,0-2.1,0.1c-1.4,0.2-2.7,0.8-4,1.4
		c-1.3,0.6-2.8,1-4,1.6c-0.2,0.1-0.4,0.4-0.7,0.5c-0.3,0.1-0.7,0.2-1,0.4c-1.8,0.8-4,1.3-6.2,2c-2,0.2-4.5,0.4-6.3,0.1
		c-2.8-0.5-5.4-1-7.7-2.1c-0.5-0.2-0.9-0.4-1.4-0.6c-0.4-0.2-0.8-0.5-1.3-0.7c-3-1.4-5.9-2.9-9.3-3.4c-1-0.1-2.3-0.2-3.2-0.1
		c-0.5,0-0.7,0.1-1,0c-0.4-0.3-0.3-0.9-0.1-1.4c4.7-0.2,10,0.2,15.2-0.1c0.6,0.5,1.1,1,1.9,1.5c0.9,0.6,2.7,1.4,4,1.6
		c3.9,0.5,8.3,0.5,11.6-0.5c1.9-0.2,3.7-0.8,5.1-1.9c0.4-0.3,0.5-0.7,0.9-0.8c0.5-0.2,1.5,0.1,2.2,0.1c1.9-0.1,4.2,0.2,6.3,0
		c1.4-0.1,3-0.3,4.6-0.4c1.9,0.5,3.8,0.1,5.7-0.1c0.4,0,0.8,0.1,1.3,0.2c3.5,0.5,7,0.4,10.4,0.6c1,1.3,2.3,2.3,4.3,2.6
		c1.9,0.2,3.8,0,5.7,0.1C80.5,38.8,80.5,40.8,80.1,42.4z M31.7,33.2c-0.3,0-0.8,0-0.9-0.4c2-0.6,4.7-0.6,6.2-1.9
		c0.2-0.1,0.3-0.1,0.5,0c3.4-1.5,7.5-2.2,11.3-3.4c2.9-0.5,6.5-1,9.4,0.1c0.2,0.1,0.3,0.3,0.5,0.4c0.3,0.1,0.7,0.2,1,0.3
		c0.8,0.3,1.7,0.7,2.7,1.1c0.4,0.1,0.8,0.1,1.1,0.4C63,30.6,61.9,30.7,61,31c-1.3,0.4-2.4,0.9-3.9,1.1c-1.7,0.3-3.5,0.5-5.3,0.7
		c-2.8,0.4-6.3,0-9.3,0.1c-0.5,0-0.9,0.1-1.3,0.1c-0.3,0-0.5-0.2-0.7-0.2c-0.7,0-1.4,0.3-2.3,0.3C36,33.1,33.9,33.4,31.7,33.2z
		 M37.4,34.1c-0.8,0.8-2,1-3.5,1.3c-1.7,0.3-3.8,1-5.7,1c-0.7,0-1.5-0.1-2.3-0.2c-0.8,0-1.8,0-2.6-0.1C23,36,22.5,35.8,22,35.6
		c-0.9-0.3-1.7-0.5-2.5-0.8c-0.3-0.1-0.7-0.3-0.9-0.6c0.3-0.3,0.8-0.3,1.2-0.3c0.8,0,1.6,0,2.3,0.1c0.7,0,1.4,0,2.1,0
		c2.7,0,5.5,0.3,8.1,0.3c1.3,0,2.6-0.2,3.8-0.3C36.6,33.9,37.1,33.7,37.4,34.1z M33.5,31.1c-1.5,0.3-2.8,0.8-4.1,1.1
		c-1.1,0.3-2.5,0.3-3.7,0.4c-2,0.1-3.5,0.6-5.2,0.3c-2.7,0.4-7.7,0.1-10.7,0c-0.5,0-1.5,0.2-1.5-0.4c0-0.4,0.8-0.5,1.1-0.7
		c0.7-0.3,1.5-0.8,2-1.2c0.2-0.1,0.3,0.1,0.5,0c1.8-0.8,4.4-0.7,6.2-1.6c2.6-0.4,5.2-1.5,8.1-1.7c2-0.1,3.6,0.3,5.4,0.8
		c0.9,0.3,1.9,1,2.9,1.4c0.4,0.1,1.1,0.4,1,0.8C35.5,30.9,34,31,33.5,31.1z M72.2,34.3c2.4-0.3,5.8,0,8.2-0.2c0.2,0.5-0.1,0.9,0,1.6
		c-0.2,0.3-0.5,0.2-0.9,0.2c-1.6-0.1-4.2,0.3-5.6-0.2C73.4,35.1,72.4,35.2,72.2,34.3z M80.4,33.7c-3.8-0.7-8.6-0.4-12.8-0.6
		c-1.9-0.1-3.7-0.2-5.5-0.3c-0.8,0-1.6,0.1-2.3-0.3c0.3-0.5,1-0.4,1.6-0.6c1-0.3,2-0.7,2.8-1.1c5.2-1.3,11-3.3,16.4-3.5
		C80.5,29.5,80.6,31.7,80.4,33.7z M1.4,115.7c0.7-0.3,1.5-0.1,2.2-0.2c2-0.3,3.1-1.4,4.7-2c0.2-0.1,0.4-0.1,0.6-0.2
		c1.9-0.8,5.9-1.3,8.3-0.5c0.9,0.3,1.7,0.9,2.5,1.3c1.7,0.8,3.4,1.5,5.7,1.7c1.6,0.2,3.2,0.3,4.7,0c1.6-0.3,2.8-1,4.3-1.6
		c2.3-0.9,4.8-1.5,7.7-1.2c1.4,0.1,2.6,0.6,3.8,1.1c0.2,0.1,0.4,0.1,0.6,0.2c0.1,0.1,0.2,0.3,0.4,0.4c0.2,0.1,0.5,0.1,0.7,0.2
		c0.2,0.1,0.3,0.3,0.5,0.4c0.2,0.1,0.5,0.1,0.7,0.2c0.6,0.2,1.5,0.7,2.2,0.8c1.1,0.2,2.3,0.1,3.3,0.1c1.9-0.1,3.5-0.8,5.2-1.5
		c1.6-0.6,3.3-1.4,4.9-1.7c2.6-0.5,5.4,0.4,7.4,1.1c0.5,0.2,0.9,0.5,1.5,0.7c0.3,0.1,0.6,0.1,0.9,0.2c0.5,0.2,0.8,0.4,1.3,0.5
		c1.3,0.4,2.8,0.7,4.4,1c0.1,0.5,0.1,1.3-0.2,1.7c-2.8,0.2-4.9-1.1-7.1-2c-0.7-0.3-1.4-0.7-2.2-0.9c-1.2-0.4-2.8-0.5-4-0.4
		c-2.2,0.2-4.5,1-6.5,1.7c-2,0.7-3.9,1.7-6.3,1.9c-1.1,0.1-2.7-0.1-3.7-0.4c-0.8-0.2-1.6-0.7-2.5-1c-0.8-0.3-1.6-0.7-2.5-1
		c-1.5-0.5-4.1-1-5.9-0.9c-1.8,0.1-3.6,0.9-5,1.5c-0.8,0.3-1.7,1.1-2.5,1.3c-1.7,0.5-3.9,0.6-5.7,0.4c-1.4-0.1-2.5-0.9-3.7-1.1
		c-2-1.3-4.7-2-7.6-2.5c-0.4-0.1-0.9-0.2-1.2-0.2c-0.7,0-1.6,0.3-2.3,0.5c-0.9,0.3-1.9,0.6-2.8,1.1c-0.9,0.5-1.7,1-2.6,1.3
		c-0.8,0.2-1.5,0.2-2.2,0.4c-0.7,0.2-1.3,0.3-2.1,0.5C1,117.6,1.4,116.6,1.4,115.7z M1.4,119c1.4-0.1,3.5-0.2,5-0.7
		c2.3-0.7,4.1-2.3,6.6-2.6c1-0.1,1.9,0.4,3,0.4c0.4,0.3,0.8,0.2,1.3,0.4c3.4,1,5.9,3.1,9.7,3.2c0.8,0,1.7,0.2,2.5,0.1
		c0.2,0,0.5-0.2,0.7-0.2c0.2,0,0.5,0,0.8,0c1.7-0.3,2.8-1.2,4.3-1.8c2.4-0.9,5-1.3,7.8-0.8c2.7,0.7,5,1.9,7.5,2.8
		c0.8-0.2,1.5,0.2,2.5,0.2c1.2-0.1,2.5-0.2,3.7-0.5c1.2-0.3,2.2-0.9,3.4-1.3c0.6-0.2,1.2-0.4,1.7-0.6c2.1-0.7,4.7-1.6,7.2-1.3
		c1.8,0.2,2.9,1.2,4.8,1.6c1,0.7,2.8,1.4,4.7,1.6c0.5,0,1.4,0,1.6,0.2c0.4,0.4,0.1,1.3-0.1,1.9c-1.2,0.1-2.6-0.2-3.3-0.9
		c-0.3-0.1-0.2,0.2-0.5,0.2c-0.3-0.3-0.7-0.2-1.1-0.4c-1-0.4-1.8-1-2.8-1.4c-0.5-0.2-1-0.4-1.6-0.5c-1.7-0.3-4.3-0.6-6.3-0.1
		c-2.4,0.6-4.5,2.1-6.9,2.6c-2.3,0.5-4.7,0.8-7.2,0.1c-1.3-0.4-2.8-1.3-4-1.7c-3.6-1.1-7.7-1.1-11.3,0.1c-1.4,0.5-2.7,0.9-4.1,1.4
		c-0.8,0.3-1.7,0.8-2.8,0.9c-0.9,0.1-1.9,0-2.8-0.1c-1.6-0.2-3.3-1-5-1.6c-1.6-0.6-3.3-1.2-5-1.6c-1.2-0.3-2.9-0.5-4.3-0.3
		c-0.7,0.1-1.4,0.4-2,0.5c-2.7,0.7-4.7,2.2-7.6,2.6C1.2,120.8,1.3,119.7,1.4,119z M14.8,129.7c-1.3-0.1-2.9,0-4-0.4
		c0.6-0.2,1.3-0.6,2-0.6c0.2,0,0.4,0.1,0.6,0.1c0.7,0,1.5-0.5,2,0c0.8-0.2,1.6,0.3,2.4,0.4c0.2,0.4,1.1,0.2,1.1,0.8
		C17.5,130.3,16.2,129.8,14.8,129.7z M43.9,130c-1.3,0-3.1-0.1-4.6-0.1c-0.7,0-1.4,0.3-1.9-0.1c2-1,5.2-0.8,7.5-0.1
		C44.7,130.2,44.3,130,43.9,130z M64,130.2c-0.4,0.4-0.8,0.5-1.6,0.4c0.5-0.6,1.3-0.6,2-0.6C64.5,130.2,64.1,130.4,64,130.2z
		 M71.1,130.1c-0.9,0-2.2,0.1-3.3,0.1c-1.1-0.1-2.5,0.6-2.9-0.3c0.3-0.6,1.4-0.5,2-0.8c0.3-0.2,0.6,0.1,1,0.2
		c1.4,0.3,3.4-0.1,4.3,0.7C71.9,130.4,71.5,130.1,71.1,130.1z M79.9,130.6c-1.2,0.1-2.1-0.1-3.1-0.2c-0.4,0-0.8,0.1-1.1,0
		c-0.2,0-0.3-0.2-0.5-0.3c-0.3-0.1-0.6,0-0.9-0.1c-0.3-0.1-0.6-0.4-0.9-0.5c-2.2-1.2-5.2-1.4-8.1-0.7c-1.2,0.3-2.2,0.6-3.2,1.2
		c-0.4,0.3-0.5,0.7-1,0.8c-0.5,0.2-1.5,0-2.2,0.1c-3.3,0.1-6.5,0.1-9.6-0.5c-0.2-0.1-0.3-0.3-0.5-0.3c-1.4,0-2.3-1-3.5-1.3
		c-1-0.3-2.1-0.4-3.1-0.5c-1.9-0.3-4.1,0.2-5.7,0.7c-1,0.3-1.8,0.7-2.6,1.3c-1.3-0.1-2.6,0-4-0.1c-1.4-0.1-2.8,0-4.3,0.1
		c-0.8,0-2.1,0-3.2-0.1c-0.6,0-1,0.1-1.4,0c-0.9-0.2-2-1-2.9-1.3c-1.5-0.6-3.4-0.9-5.3-0.7c-1.7,0.2-3.2,0.5-4.6,1.1
		C7.5,129.6,7,130,5.9,130c-0.8,0.1-2.9,0.1-3.4-0.2c-0.3-0.2-0.5-0.8-0.5-1.2c0.7-0.3,1.5-0.2,2.3-0.2c1.6-0.2,3-0.9,4.3-1.5
		c0.8-0.4,1.7-0.6,2.5-1c1.2-0.1,2.3-0.2,3.5-0.1c1.7,0.2,2.8,0.5,4.2,1.1c1.7,0.7,3.2,1.1,5.2,1.6c1.5,0.4,2.7,0.5,4.5,0.4
		c0.9-0.1,1.7-0.3,2.5-0.5c3.2-1.4,6.5-2.9,10.4-2.5c3.4,0.3,6.6,1.8,9.8,2.6c1.6,0.4,2.6,0.8,4.4,0.7c1.9-0.1,4-0.9,5.3-1.5
		c0.2-0.1,0.4-0.3,0.6-0.4c0.3-0.1,0.7-0.1,1-0.2c0.8-0.2,1.5-0.6,2.2-0.7c2.2-0.4,4.2-0.2,5.9,0.2c1.3,0.3,2.6,1,3.8,1.4
		c0.5,0.2,0.9,0.2,1.4,0.4c0.6,0.2,1.2,0.6,1.9,0.8c0.8,0.2,1.8,0.1,2.5,0.2C80.3,129.8,80.1,130.3,79.9,130.6z M79.9,128.5
		c-1.8,0-3.3-0.8-4.9-1.4c-1.5-0.6-3.1-1.4-4.7-1.6c-2.3-0.4-5-0.5-7.2,0.2c-1.7,0.6-3.2,1.3-4.9,1.8c-0.8,0.3-1.7,0.7-2.5,0.8
		c-1.4,0.2-2.7-0.3-4.1-0.7c-1.3-0.4-2.6-0.8-3.7-1.1c-1.1-0.4-2.3-0.9-3.7-1.2c-1.3-0.3-2.8-0.7-4.1-0.7c-0.9,0-1.9,0.2-2.8,0.4
		c-2.7,0.5-4.7,1.5-6.9,2.5c-1.5,0.2-2.7,0.5-4,0.4c-1-0.1-2.2-0.4-3.3-0.7c-2-0.4-3.8-1.3-5.9-1.9c-1.9-0.5-3.8-0.9-6-0.5
		c-2.5,0.4-4.3,2.1-7,2.6c-0.7,0.1-2.3,0.5-2.6,0.2c-0.4-0.3,0-2.2,0-2.8c0.8-0.1,1.6,0,2.5-0.1c1.3-0.2,2.5-0.8,3.8-1.3
		c1.9-0.7,4.5-1.3,6.6-0.8c2.6,0.6,5.2,1.7,7.4,2.8c0.7,0.1,1.3,0.3,2,0.5c3.1,0.8,6.4-0.1,9.5-1.1c2.3-0.7,4.5-1.8,6.9-1.9
		c3-0.1,5.6,0.9,7.9,1.8c0.6,0.2,1.2,0.5,2,0.8c3.3,1,7.4,0.2,10.1-1.1c0.3-0.2,0.6-0.4,0.8-0.5c0.5-0.2,1.2-0.4,1.8-0.5
		c1.7-0.5,4-0.7,5.9-0.5c3,0.3,5.4,2.2,8.4,3c0.8,0.2,2.1,0.1,2.9,0.3C80.2,127,80.2,127.9,79.9,128.5z M80,125.1
		c-3.4,0.2-5.3-1.6-8-2.4c-0.3-0.2-0.2-0.4-0.3-0.7c-1.9,0.1-4.3-0.1-6.3-0.1c-1.3,0-2.6,0.3-3.8,0.7c-1.1,0.4-2,1.1-3.1,1.5
		c-0.4,0.1-0.9,0.2-1.3,0.4c-0.4,0.1-0.8,0.3-1.2,0.4c-4.6,1-8.7-2.2-13-2.9c-2.2-0.4-4.9-0.2-6.8,0.5c-0.6,0.2-1.1,0.6-1.6,0.8
		c-1.1,0.4-2.3,0.8-3.5,1.2c-1.4,0.4-3.2,0.9-4.8,0.9c-1.2,0-2.4-0.5-3.6-0.9c-2.1-0.8-4.3-1.6-6.5-2.3c-1.2-0.4-2.6-0.5-3.8-0.5
		c-0.4,0-0.9,0-1.4,0c-2.6,0.2-4.6,1.8-7,2.3c-0.7,0.2-1.5,0.1-2.3,0.3c-0.2-0.5-0.3-1.4,0-2c2.2,0.3,3.7-0.9,5.4-1.6
		c0.7-0.3,1.5-0.5,2.3-0.7c0.8-0.2,1.9-0.6,2.8-0.5c1.5,0,3.1,0.4,4.6,0.8c1.4,0.4,2.9,0.8,4.2,1.3c1.1,0.4,2.1,1,3.2,1.2
		c1.1,0.2,2.4,0.3,3.8,0.4c1.6,0,3.3-0.9,4.9-1.4c1.5-0.5,2.9-0.9,4.4-1.2c3-0.6,6.2-0.6,9.3,0.4c1,0.7,2.2,1,3.4,1.5
		c0.8,0,1.5,0.4,2.3,0.5c1.8,0.2,3.5-0.2,5.2-0.5c2.7-0.6,5.1-2.1,7.9-2.7c2.3-0.5,4.6,0.1,7.1,0.5c2.2,1.4,4.9,2.5,8.1,2.7
		C80.2,123.6,80.4,124.5,80,125.1z M79.9,115.4c-1.1-0.2-2.3-0.1-3.4-0.5c-0.3-0.1-0.5-0.3-0.7-0.4c-0.9-0.4-2-0.7-3-1.1
		c-1-0.4-2.1-0.6-3.2-0.9c-0.9-0.2-1.7-0.6-2.6-0.7c-1.5-0.2-2.9,0.1-4.5,0.5c-3.5,1.2-6.7,3.3-10.6,2.9c-2.2-0.2-4-1.6-6-2.3
		c-2.2-0.8-4.5-1.2-6.9-1.1c-1.9,0.1-3.6,0.8-5.2,1.6c-1.6,0.8-3.2,1.5-5,1.7c-1.1,0.2-2.4,0.1-3.5-0.1c-2.1-0.3-3.9-1-5.6-1.9
		c-2.1-1.2-4.2-1.8-7.4-1.6c-1.8,0.2-3.8,0.6-5.2,1.3c-0.6,0.3-0.9,0.7-1.4,1c-1.2,0.7-3,0.9-4.6,1.2c0-1,0-1.9,0.2-2.9
		c3,0.5,5.3-1.2,7.7-2c1.2-0.4,3.1-0.6,4.6-0.7c1.5-0.1,2.9,0.5,4.3,1c1.3,0.5,2.6,1.1,3.6,1.7c1.3,0.3,2.4,0.6,3.7,0.7
		c0.8,0.1,1.5,0.2,2.3,0.2c1.5,0.1,3-0.1,4.4-0.4c1.1-0.4,2.2-0.9,3.2-1.4c1.8-0.8,3.7-1.4,6.2-1.4c0.5,0.3,1.1,0.3,1.6,0.4
		c0.4,0.1,0.8,0.4,1.3,0.5c0.3,0.1,0.5,0,0.8,0.1c0.2,0.1,0.4,0.2,0.5,0.3c0.2,0.1,0.5,0,0.7,0.1c0.7,0.2,1.4,0.6,2,0.9
		c0.6,0.2,1.4,0.6,2.2,0.8c0.1,0,0.2,0,0.3,0c0.5,0.2,1.5,0.2,2.2,0.2c0.9,0,1.9,0,2.8-0.1c0.6,0,1.1-0.3,1.7-0.4
		c1-0.2,2-0.4,2.9-0.7c2.1-0.7,3.8-2.5,6.9-2c0.5,0.1,1,0.4,1.6,0.5c2.1,0.4,3.9,0.9,5.6,1.9c1.9,0.5,3.8,0.9,5.9,1.3
		C80.5,114.2,80.2,114.8,79.9,115.4z M80.3,112.1c-0.8,0-1.6-0.2-2.4-0.4c-0.8-0.2-1.6-0.2-2.4-0.5c-0.6-0.2-1.2-0.6-1.7-0.8
		c-1.5-0.6-3.3-0.9-5-1.4c-0.9-0.3-2-0.7-3.2-0.7c-2.1,0.3-3.5,1.3-5.1,2.1c-3.8,1.3-8.4,2-12,0.4c-0.4-0.2-0.8-0.5-1.2-0.7
		c-1.1-0.4-2.4-0.6-3.5-0.9c-1.2-0.3-2.5-0.6-3.7-0.8c-3-0.4-5.3,1.6-7.5,2.5c-0.8,0.3-1.6,0.6-2.8,0.7c-1.8,0.1-3.1-0.2-4.7-0.4
		c-0.8-0.1-1.8-0.1-2.5-0.3c-0.5-0.2-1-0.5-1.6-0.7c-0.5-0.2-1.1-0.4-1.6-0.6c-1.5-0.6-3-1.4-5-1.5c-5.5-0.3-8.2,3-12.9,3.1
		c0-0.7-0.2-1.9,0.2-2.3c0.2-0.2,0.5,0,0.9-0.1c1.6-0.1,3.6-1.5,4.9-1.9c1.7-0.5,3.3-1.2,5.3-1.4c1.7-0.2,2.7,0.4,4.1,0.8
		c1.8,0.6,3.6,1.2,4.9,2.2c1.6,0.2,3.5,0.5,5.1,0.2c1.2-0.2,2.8-0.4,4.2-0.7c4.3-0.8,9.3-2.2,13.8-0.8c1.1,0.3,2.1,0.8,3.4,1.2
		c0.4,0.1,0.7,0.3,1.1,0.4c0.5,0.2,1.3,0.2,2,0.3c1.2,0.1,2.2,0.3,3.4,0.1c0.8-0.1,1.7-0.4,2.5-0.6c0.9-0.2,1.7-0.3,2.6-0.5
		c1.6-0.4,3.2-1.1,4.9-1.3c2.2-0.3,5.2,0.1,7.4,0.5c1.3,0.3,2.4,0.7,3.6,1.2c1.5,0.6,3.3,0.7,5,1C80.4,110.3,80.6,111.3,80.3,112.1z
		 M80.1,89.2c-1.4,0-2.7-0.2-4-0.5c-3.6-0.7-6.1-2.8-9-4.1c-2.4-1.1-4.7-2.1-7.8-2.5c-2-0.3-4.1-0.6-6.1-0.5
		c-4.4,0.3-8.3,2.1-11.8,3.7c-1.8,0.8-3.7,1.5-5.6,2.2c-3.7,1.4-8.2,2.6-12.9,1.5c-0.3-0.1-0.6-0.2-1-0.3c-0.4-0.1-0.7-0.1-1.1-0.2
		c-2-0.5-3.8-1.8-5.7-2.6c-1.8-0.7-3.7-1.5-5.7-2.2C7,83,4.7,81.9,1.6,82.1c0-2.1,0.2-4.7,0.3-6.9c0-0.1,0.1-0.1,0.2-0.1
		c1.6,0.5,3.2,0.6,4.7,1.2c0.5,0.2,1,0.4,1.5,0.5c0.9,0.2,1.9,0.6,2.9,1c0.9,0.3,1.8,0.8,2.7,1.3c0.6,0.3,1.2,0.6,1.9,1
		c0.9,0.5,1.8,1.2,2.7,1.7c0.3,0.2,0.7,0.3,1.1,0.5c1.1,0.5,2.5,1.2,3.9,1.4c1,0.2,2.3,0.1,3.4,0.2c0.8,0,1.7-0.3,2.3,0.2
		c0.2-0.1,0.4-0.2,0.5-0.4c2.5,0.1,4.7-1.2,6.9-2.1c1.9-0.7,3.7-1.4,5.5-2.2c3.9-1.9,7.8-3.3,13-3.6c0.8,0,1.9,0.2,2.9,0.3
		c1,0.1,2.1,0.2,3,0.4c1.4,0.3,2.6,0.8,3.9,1.3c0.4,0.2,0.9,0.2,1.3,0.4c0.4,0.2,0.8,0.5,1.1,0.7c1.1,0.6,2.3,1.3,3.6,1.9
		c1.7,0.7,3.5,1,5.5,1.5c0.4,0.1,0.7,0.4,1.1,0.5c1.1,0.3,2.2,0.4,3.3,0.8C80.3,85.4,80.4,87.5,80.1,89.2z M80.9,76.4
		c-0.1,2.1,0.2,4.1-0.4,6.2c-1.4-0.3-2.6-0.8-3.8-1.1c-1.3-0.4-2.6-0.6-4-1c-1.2-0.4-2.4-0.9-3.5-1.5c-1.8-0.9-3.3-2-5.4-2.7
		c-1.6-0.5-3.2-0.9-5.3-1.1c-0.9-0.1-1.9-0.3-2.8-0.4c-4.9-0.1-9.4,1.3-13,3.1c-0.9,0.4-1.8,0.9-2.8,1.3c-0.9,0.4-2,0.6-2.9,1
		c-0.9,0.3-1.8,0.9-2.8,1.3c-1.5,0.6-2.8,1.1-4.6,1.3c-2,0.2-4,0.3-5.9,0.1c-2.3-0.2-3.8-1.5-5.6-2.3c-0.8-0.5-1.7-1.1-2.6-1.6
		c-0.6-0.3-1.4-0.9-2.2-1.3c-0.9-0.4-1.9-0.7-2.9-1.1c-2-0.7-4.1-1.4-6.1-1.9c-0.8-0.2-1.7-0.1-2.5-0.2c0-1.5,0.2-3.5,0.2-5.1
		c1-0.2,2.9,0,3.9,0.2c2.5,0.4,4.7,1.3,6.8,2.3c1.1,0.5,2,1.2,3.1,1.4c2.6,1.8,5.9,2.5,9,3.7c1.8,0.2,3,0.5,4.6,0.2
		C33.2,77.4,37,75,40,73.7c0.8-0.3,1.6-0.6,2.4-1c1.9-0.9,3.9-1.7,6.2-2.3c4.4-1.1,10.5-0.8,14.4,0.9c1.4,0.6,3.1,1,4.7,1.7
		c0.7,0.3,1.2,0.6,1.9,0.8c1.3,0.5,2.7,0.8,4.1,1.1c0.7,0.2,1.4,0.2,2.2,0.4c0.9,0.2,1.8,0.6,2.8,0.8C79.3,76.2,80.1,76.1,80.9,76.4
		z M80.6,75.2c-1.7,0-3.2-0.8-4.8-1.1c-2.2-0.4-4.5-0.9-6.5-1.7c-0.8-0.3-1.5-0.7-2.3-1c-0.8-0.3-1.5-0.6-2.3-0.9
		c-1.6-0.6-3.2-1.2-4.9-1.6c-2.2-0.5-5.6-0.6-7.8-0.5c-3,0.1-5.5,1-7.8,2c-1.7,0.7-3.4,1.3-4.9,2.2c-1.2,0.3-2.3,0.8-3.4,1.3
		c-1.6,0.7-3,1.7-5.1,1.9c-1.3,0.1-2.7,0.1-3.8,0c-1.8-0.1-3.6-0.7-5.3-1.3c-1.6-0.5-3.3-1.1-4.7-1.9c-3.7-2-6.9-3.6-11.6-4.3
		c-1.2-0.2-2.4-0.3-3.7-0.1c-0.1-1.8-0.1-4,0-5.6c0.6-0.3,1.4,0.1,2.3,0.3c0.5,0.1,1,0,1.4,0.1c2.1,0.4,4.2,1.5,6,1.9
		c1.3,0.8,2.9,1.2,4.1,2c0.9,0.3,1.5,0.7,2.3,1.1c2.2,0.4,4.3,1.5,6.8,1.9c0.3,0,0.7,0.2,1,0.2c1.1,0.1,2.2-0.2,3.3-0.3
		c0.9-0.1,1.7,0,2.6-0.1c1.4-0.1,2.8-0.7,4.1-1.1c0.3-0.1,0.5-0.2,0.7-0.4c2-0.1,3.8-1.3,5.3-2.2c1.6-0.9,3.3-1.1,4.9-1.9
		c2.2-0.1,4.2-1.3,6.4-1.4c1.1-0.1,2.3,0.1,3.5,0.2c0.8,0.1,1.5,0.2,2.4,0.4c2.4,0.5,4.2,1.5,6.5,2.3c1.8,0.7,3.4,1.4,5.2,2
		c1.1,0.4,2.3,0.7,3.5,1c0.7,0.2,1.4,0.5,2.1,0.7c1.4,0.2,2.8,0.5,4.3,0.6C80.7,71.8,80.7,73.4,80.6,75.2z M80.4,66.1
		c0,1,0.1,2-0.2,2.9c-5.9-0.5-10.9-2.8-15.9-4.9c-1.3-0.5-2.5-1.1-3.8-1.4c-1.4-0.4-2.9-0.6-4.4-0.8c-1.5-0.2-2.8-0.4-4.4-0.1
		c-1.4,0.2-2.7,0.7-4.1,1.1c-1.2,0.3-2.1,0.5-3.1,0.8c-0.9,0.3-1.8,0.6-2.8,1c-1.9,1.5-4.6,2.2-7.4,3.1c-0.9,0.3-1.9,0.7-2.7,0.8
		c-0.9,0.1-1.8,0.1-2.6,0.2c-0.9,0.1-1.8,0.4-2.7,0.4c-1.6,0-3.2-0.4-4.6-0.9c-1.4-0.5-2.8-0.9-4-1.4c-2.6-1.1-4.9-2.5-7.5-3.4
		c-0.5-0.2-1.1-0.3-1.6-0.5c-0.5-0.2-1.2-0.3-1.7-0.4c-1.7-0.3-3.5-0.6-5.3-0.6c-0.1-1.7,0.2-4,0.3-5.7c2.6-0.2,6.6,1.2,8.8,2
		c1.3,1,2.9,1.6,4.5,2.5c0.2,0.1,0.4,0.3,0.5,0.4c0.4,0.2,0.8,0.2,1.3,0.4c1.9,0.8,4,1.3,6.3,1.8c0.8,0.2,1.6,0.4,2.3,0.5
		c0.2,0,0.4-0.1,0.6-0.1c0.3,0,0.6,0.2,0.9,0.2c0.7,0,1.5-0.2,2.3-0.2c0.8-0.1,1.6-0.1,2.3-0.2c3.6-0.7,6.7-2.4,9.6-3.9
		c0.7-0.4,1.5-0.5,2.2-0.8c1.5-0.6,3-1.2,4.7-1.5c2.3-0.4,4.9-0.8,7.2-0.6c1,0.1,2,0.2,3,0.4c3.1,0.4,5.5,1.1,7.9,2.2
		c0.6,0.1,1.1,0.4,1.7,0.7c0.6,0.2,1.1,0.4,1.7,0.6c1.6,0.7,3.3,1.4,5.2,1.9c0.6,0.2,1.3,0.2,1.9,0.4c0.3,0.1,0.5,0.3,0.8,0.4
		c0.8,0.2,1.9,0.2,2.9,0.4C80.7,64.2,80.5,65.1,80.4,66.1z M70.9,2.2c-0.1,0.1-0.3,0.2-0.4,0.1C70.6,2.2,70.8,2.1,70.9,2.2z
		 M62.8,1.6c0.6,0,1.3,0,1.8,0c0.5,0,1,0.3,1.6,0.3c0.7,0.1,1.6-0.1,2,0.5c-0.5,0.4-1.7,0.3-2.6,0.3c-1.6,0.1-3.4-0.1-4.4-0.7
		C61.4,1.4,62,1.6,62.8,1.6z M34.3,1.6c3.1,0.2,7.3,0.3,10.8,0.1c0.4,0,0.7-0.2,1.1,0c-0.1,0.5-0.8,0.6-1.3,0.9
		c-0.2,0.1-0.4,0.3-0.6,0.4c-0.5,0.2-1.3,0.2-2,0.2c-3,0-6.8,0.1-8.6-1.3C33.9,1.7,34.2,1.7,34.3,1.6z M9.2,1.7
		c2.8,0,5.8,0.4,8.7,0.3c-1.4,0.6-3.4,1-5.3,0.9c-1.1,0-2.4-0.1-3.4-0.4C8.6,2.4,7.9,2.3,7.5,1.9C8,1.5,8.6,1.7,9.2,1.7z M3.5,1.4
		c0.8,0.1,1.6,0.1,2,0.4c0.5,0.3,0.9,0.7,1.4,1c2.7,1.4,6.2,1.3,9.4,0.8c0.6-0.1,1.2-0.2,1.9-0.4c0.6-0.2,1.2-0.4,1.7-0.7
		c0.5-0.3,0.9-0.7,1.6-0.9c0.7-0.2,2,0.1,3.1,0.1c1,0,2.2-0.2,3.4-0.1c0.7,0,1.5,0.2,2.3,0.2c1.5,0,2.5-0.1,3.1,1
		c1,0.4,1.7,1.1,2.8,1.3c0.9,0.2,2.2,0.2,3.2,0.2c1.7,0,4.3,0.1,5.6-0.5c0.6-0.3,1.4-0.8,1.9-1.3c0.3-0.3,0.9-0.9,1.4-1
		c1-0.3,2.8-0.1,4.1,0c1.1,0.1,2.1,0.1,3.1,0.1c0.3,0,0.5,0.1,0.8,0.1c0.9,0.1,2.5-0.1,3.2,0.2c0.4,0.2,0.6,0.6,1,0.9
		c1.4,0.4,2.4,1,4,1.1c0.8,0.1,1.7,0,2.6-0.1c2.2-0.2,4.9-0.2,6.7-1.3c0.3-0.2,0.5-0.6,0.8-0.7c0.4-0.1,1.1-0.1,1.6-0.1
		c1,0,2,0.3,2.9,0.1c0.4,0.2,1.2,0,1.5,0.4c0.2,0.4-0.1,0.8-0.3,1.3c-1.1,0-2.3-0.3-3.6,0.1c-0.9,0.2-1.7,0.9-2.6,1.2
		c-0.7,0.3-1.5,0.3-2.2,0.4c-1.9,0.3-4.2,0.9-6.3,0.6c-1.2-0.2-2.4-0.5-3.5-0.8c-0.5-0.1-1.1-0.3-1.6-0.5c-1.4-0.6-2.3-0.9-3.8-1.6
		c-1.2-0.1-3.3-0.6-4.9,0c0.2,0.8,1.1,0.5,1.7,0.5c1.1,0.1,2.3,0.6,3.4,0.5c0.8,0.5,1.8,0.8,2.7,1.1c1.5,0.6,2.9,1.1,4.6,1.5
		c1.4,0.3,3,0.6,4.9,0.2c0.7-0.1,1.4-0.2,2.1-0.4c0.5-0.1,1.2-0.2,1.7-0.3c2.3-0.6,4.3-2.4,7.6-1.7c0.1,0.5,0,1.6-0.3,2.1
		c-2.3-0.2-4.8,0.6-6.8,1.3C72.1,8,70.8,8.9,69.1,9c-0.7,0.1-1.4-0.1-2,0.1c-0.6-0.3-1.2-0.1-1.9-0.2c-0.8-0.1-1.6-0.4-2.5-0.5
		c-0.7-0.1-1.3-0.2-1.9-0.4c-0.8-0.3-1.4-0.8-2.2-1c-0.7-0.2-1.5-0.4-2.3-0.6C55,6,52.9,5.8,51,6c-1.2,0.2-2.3,0.8-3.5,1.3
		c-1.1,0.5-2.2,0.8-3.5,1.3C43.5,8.6,43,8.9,42.4,9c-0.8,0.1-1.8,0-2.7,0c-0.9,0-1.9,0-2.7-0.1c-1.5-0.2-3.1-1.2-4.6-1.8
		c-0.6-0.2-1.2-0.6-1.7-0.7c-0.2,0-0.4,0-0.6,0c-0.8-0.2-1.6-0.7-2.7-0.4C28.9,6.8,30.6,7.3,32,8c0.8,0.4,1.5,0.8,2.3,1.1
		c2.2,1,5,1.1,7.4,1c0.8-0.1,1.5-0.3,2.3-0.5c0.4-0.1,1-0.1,1.6-0.2c2.3-0.6,4.1-2.4,6.8-2.4c0.9,0,1.7,0.2,2.6,0.2
		c0.9,0.4,1.9,0.5,2.8,0.8c0.9,0.2,1.6,0.7,2.5,1.1c0.8,0.3,1.8,0.6,2.8,0.7c1.5,0.2,2.9,0.5,4.3,0.5c0.5,0,1.1-0.2,1.6-0.2
		c0.8,0,1.6-0.1,2.2-0.6c1.4-0.2,2.5-0.7,3.5-1.2c0.6,0.1,1.2-0.3,1.8-0.5c1.2-0.1,2.9-0.6,4-0.4c-0.1,0.5-0.1,1.4-0.4,2
		c-2,0-3.6,0.6-5.2,1.4c-1.2,0.6-2.4,1.3-3.5,1.6c-1.5,0.5-3.1,0.2-4.7,0.1c-1.4-0.1-2.9-0.3-4.1-0.8c-2.5-0.9-5.1-2.8-8.4-2.6
		c-2.1,0.1-4,0.8-6,1.4c-0.5,0.1-1,0.2-1.4,0.4c-1.9,0.6-3.7,1.5-5.6,1.6c-1,0-2.2-0.2-3.4-0.3c-0.8-0.1-1.6-0.3-2.2-0.5
		c-1.7-0.6-3.4-2.3-5.4-1.9c0.4,0.9,1.5,0.9,2.3,1.3c0.9,0.4,1.7,1.2,2.5,1.6c2.4,0.4,4.3,1.1,6.6,1c0.9-0.1,1.9-0.4,2.8-0.6
		c0.9-0.2,1.8-0.6,2.7-0.8c0.9-0.3,1.8-0.6,2.6-0.9c0.9-0.3,1.7-0.7,2.5-1c0.8-0.2,1.8-0.4,2.9-0.2c0.5,0.1,1.1,0.3,1.6,0.4
		c0.6,0.2,1.3,0.2,1.7,0.4c0.7,0.3,1.5,0.9,2.3,1.3c0.8,0.4,1.7,0.8,2.5,1.1c1.9,0.5,4.4,0.7,6.6,0.6c1.7-0.1,3.2-0.8,4.6-1.4
		c1.3-0.6,2.7-1.2,4.1-1.7c0.6,0.1,1.1-0.3,1.6-0.1c0.1,0.7-0.1,1.6-0.2,2.3c-1.7-0.1-3.7,0.1-5.1,0.7c-1.1,0.5-2.2,1.2-3.5,1.6
		c-0.6,0.2-1.3,0.3-2,0.4c-1.1,0.2-1.9,0.5-3.1,0.4c-1.4-0.2-2.5-1.2-4.2-0.8c-0.8-0.5-1.7-0.9-2.6-1.3c-0.8-0.4-1.7-0.8-2.6-1
		c-2.4-0.4-5-0.4-7.7,0.2c-2,0.5-4,1.8-6.2,2.3c-0.7,0.2-1.5,0.5-2.1,0.6c-2.4,0.5-4.2-0.5-6.2-0.8c-1.2-0.2-2.2-0.3-3.2-0.7
		c-1-0.4-2.6-1.4-3.9-1.6c-0.8-0.1-1.5,0.3-2.3,0.4c-0.3,0-0.8-0.1-1.1-0.1c-1.3,0.1-2.5,1-3.5,1.6c-0.7,0.4-1.5,0.6-2.3,0.9
		c-1.6,0.6-4.1,1.3-6.2,0.8C10.1,15.8,8.1,14.8,6,14c-0.7-0.3-1.3-0.7-2-0.8c-1-0.1-1.7,0.1-2.6,0.1c-0.2-0.5,0.1-1.3,0.1-2
		c0-0.4-0.2-0.9,0.1-1.1c0.5-0.2,1.1,0.3,1.6,0.1c1.1,0.5,2.3,1.1,3.6,1.6c1.2,0.5,2.5,1.1,3.8,1.4c1.5,0.3,3.8,0.5,5.2,0.2
		c1.5-0.2,3.2-1.3,4.9-1.7c1.1-0.3,2.2-0.2,2.7-1.2c-0.4-0.8-1.9,0-2.6-0.1c-1.8,0.5-3.1,1.6-5,2c-0.9,0.2-1.7-0.1-2.3-0.1
		c-0.9,0-1.7,0.1-2.5-0.1c-1.1-0.2-2.2-0.7-3.2-1.1c-0.5-0.2-1-0.5-1.5-0.7c-1.3-0.5-2.8-1.3-4.5-1c-0.3-0.5-0.2-1.8,0-2.4
		C3.8,7,5.2,8.9,7.1,9.1c0.7,0.5,2.3,1,3.4,1.3c1.2,0.3,3,0.1,4.5,0.1c1.2-0.1,2.6-0.3,3.7-0.6c0.5-0.2,1.1-0.3,1.6-0.5
		c0.2-0.1,0.3-0.2,0.5-0.3C21,9,21.2,9,21.4,8.9c0.4-0.2,0.8-0.6,1.3-0.8c0.9-0.5,2-1.2,2.8-1.9c-1.2-0.1-2.1,0.6-3.1,1.1
		c-2,1-4.1,1.6-6.9,1.9c-1.4,0.1-3.4,0.4-4.7,0.1C10,9.2,9.1,8.9,8.3,8.6C7.5,8.3,6.6,8.1,6,7.7C5.1,7.3,4.4,6.6,3.3,6.4
		C2.7,6.3,2,6.3,1.4,6.4C1.2,5.6,1,4.3,1.4,3.6c2.4,0,3.6,1.5,5.4,2.3C7.3,6.2,8,6.5,8.6,6.6c1.2,0.2,2.2,0.2,3.4,0.1
		c1.2,0,2.4,0,3.5-0.1c1-0.1,2.2-0.5,3.2-0.9c1-0.4,1.9-0.8,2.9-1.1c1.1-0.4,2.3-1.1,3.5-1.3c1.1-0.1,2.1,0.1,3.2,0.2
		c1.4,0.4,2.6,1.1,3.8,1.8c0.4,0.2,0.9,0.3,1.4,0.5c0.2,0.1,0.3,0.3,0.4,0.4c0.2,0.1,0.5,0,0.7,0.1c0.2,0.1,0.3,0.2,0.4,0.3
		c0.6,0.2,1.3,0.2,1.9,0.3c1,0.1,1.9,0.1,3.1,0.1c0.4,0,0.7,0.1,1.1,0.1c1.1-0.1,2.5-0.2,3.5-0.6c0.4-0.1,0.9-0.5,0.7-1
		c-1.2-0.1-2.3,0.6-3.6,0.7c-1,0.1-2.1,0-3.2,0c-1.5,0-2.7-0.3-3.8-0.8c-1.4-0.6-2.6-1.3-4-1.9c-1.2-0.5-2.8-1-4.4-0.9
		c-2.6,0.1-4.7,0.9-6.9,1.9c-1.2,0.5-2.4,1.1-4,1.2c-0.7,0.1-1.6,0-2.4,0c-1.4,0-2.9,0.3-4.3,0C6.3,5.1,4.9,3.4,2.2,3
		C1.9,2.9,1.7,3.1,1.3,3.1C0.9,2.7,1,1.8,1,1.3C1.5,1,2.5,1.3,3.5,1.4z"/>
	<path class="st0" d="M27.2,6.1C27.1,6.1,27,6,26.9,6C26.9,6.2,27.2,6.3,27.2,6.1z"/>
	<path class="st0" d="M48.4,5.5c0.4-0.1,0.8-0.2,1.3-0.4c0.5-0.6-0.2-1.2-0.1-1.6c-0.5-0.5-1-0.8-1.8-0.4c-0.5,0.4-0.5,1.6-0.1,2.1
		C48.1,5.2,48.1,5.4,48.4,5.5z"/>
</g>
</svg>
